<svg width="80" height="80" viewBox="0 0 80 80" fill="none" xmlns="http://www.w3.org/2000/svg">
<circle cx="40" cy="40" r="40" fill="url(#paint0_linear_183_17)"/>
<path d="M40.5 50.9779L40.6047 50.7969L40.5 50.6159L38.5564 47.249L32.2926 50.8662L25.1361 54.9983L24.0469 56.8823L32.5669 51.9639L33.8542 51.2213V62.49L30.9897 67.4523L26.7856 66.3264L25.2507 65.9147L21.1824 61.8462L23.6862 57.5076L30.141 46.3284H33.8542V49.9638L34.9435 49.3356V45.239H27.7092H19.4452L17.561 46.3284H27.3966H28.8848L23.2505 56.086L18.2881 58.952L15.2099 55.8739L14.0868 54.7507L12.5972 49.1927L16.9357 46.689L28.1153 40.2327L31.332 42.0902L29.5128 45.239H30.7689L32.8174 41.6912L29.0221 39.5M40.5 50.9779L39.9765 51.8847L38.1589 48.7359L34.9435 50.5934V63.5028V68.5118L40.5 70L42.0363 69.5899L46.239 68.4624V62.732L40.6047 52.974L40.5 53.155L39.862 54.2613L34.9435 62.7811V60.6043L39.0756 53.4478L40.5 50.9779ZM40.5 50.9779L42.6912 47.1827L46.239 49.2312V50.4873L43.0902 48.6692L41.2327 51.8847L47.689 63.0656L50.1927 67.4042L55.7507 65.9147L56.8739 64.7901L59.952 61.7133L57.086 56.7511L47.3284 51.1165V52.6034V62.4403L46.239 60.5563V52.2921V45.058H50.3356L50.9638 46.1457H47.3284V49.8591L58.5076 56.3151L62.8462 58.8191L66.9147 54.7507L67.3264 53.2161L68.4523 49.0117L63.49 46.1457H52.2213L52.9639 47.4343L57.8823 55.9531L55.9983 54.8654L51.8662 47.7088L48.249 41.4436L51.6159 39.5L51.7969 39.3953L51.9779 39.5M29.0221 39.5L29.2046 39.6047L29.3855 39.5L32.7509 37.5564L29.1351 31.2926L25.0031 24.1361L23.1175 23.0469L28.0359 31.5656L28.7801 32.8542H17.5115L12.5491 29.9897L13.6751 25.7856L14.0868 24.2507L18.1551 20.1824L22.4937 22.6862L33.6731 29.141V32.8542H30.0363L30.6642 33.9435H34.761V26.7092V18.4452L33.6731 16.561V26.3966V27.8848L23.9139 22.2505L21.0494 17.2881L24.1261 14.2099L25.2507 13.0868L30.8087 11.5972L33.3124 15.9357L39.7673 27.1153L37.9113 30.332L34.761 28.5128V29.7689L38.3088 31.8174L40.5 28.0221M29.0221 39.5L28.1153 38.9765L31.2655 37.1589L29.4081 33.9435H16.4986H11.4896L10 39.5L10.4116 41.0363L11.5377 45.239H17.2682L27.0274 39.6047L26.8463 39.5L25.7387 38.8605L17.2201 33.9435H19.3957L26.5536 38.0756L29.0221 39.5ZM51.9779 39.5L52.8847 40.0248L49.7359 41.8425L51.5934 45.058H64.5028H69.5118L71 39.5L70.5899 37.9652L69.4624 33.761H63.732L53.974 39.3953L54.155 39.5L55.2613 40.1395L63.7811 45.058H61.6043L54.4478 40.926L51.9779 39.5ZM51.9779 39.5L48.1827 37.3088L50.2312 33.761H51.4886L49.6692 36.9113L52.8847 38.7673L64.0656 32.3124L68.4042 29.8087L66.9147 24.2507L65.7901 23.1261L62.7133 20.0494L57.7511 22.9139L52.1165 32.6731H53.6034H63.4403L61.5563 33.761H53.2921H46.058V29.6642L47.1457 29.0363V32.6731H50.8591L57.3151 21.4937L59.8191 17.1551L55.7507 13.0868L54.2161 12.6751L50.0117 11.5491L47.1457 16.5115V27.7801L48.4343 27.0359L56.9531 22.1175L55.8654 24.0031L48.7088 28.1351L42.4436 31.7509L40.5 28.3855L40.3953 28.2046L40.5 28.0221M40.5 28.0221L41.0235 27.1153L42.8425 30.2655L46.058 28.4081V15.4986V10.4896L40.5 9L38.9652 9.41164L34.761 10.5377V16.2682L40.3953 26.0274L40.5 25.8463L41.1395 24.7387L46.058 16.2201V18.3957L41.926 25.5536L40.5 28.0221Z" stroke="#FBFBFB" stroke-opacity="0.8" stroke-width="0.5" stroke-miterlimit="10"/>
<defs>
<linearGradient id="paint0_linear_183_17" x1="40" y1="0" x2="40" y2="80" gradientUnits="userSpaceOnUse">
<stop stop-color="#4EB162"/>
<stop offset="1" stop-color="#4E6BB1"/>
</linearGradient>
</defs>
</svg>
