<svg width="204" height="204" viewBox="0 0 204 204" fill="none" xmlns="http://www.w3.org/2000/svg">
<path d="M102 139.633L102.343 139.039L102 138.446L95.6275 127.407L75.0904 139.266L51.6266 152.814L48.0554 158.991L75.9899 142.865L80.2106 140.43V177.377L70.8186 193.647L57.0348 189.955L52.0023 188.605L38.6635 175.266L46.8727 161.041L68.036 124.388H80.2106V136.308L83.7821 134.248V120.816H60.0629H32.9679L26.7901 124.388H59.0382H63.9174L45.4441 156.38L29.174 165.777L19.0817 155.685L15.3992 152.002L10.5154 133.779L24.7401 125.571L61.3943 104.402L71.941 110.492L65.9764 120.816H70.0949L76.8112 109.184L64.3674 102M102 139.633L100.284 142.605L94.3241 132.282L83.7821 138.372V180.698V197.121L102 202L107.037 200.655L120.816 196.959V178.171L102.343 146.177L102 146.771L99.9084 150.398L83.7821 178.332V171.195L97.3298 147.73L102 139.633ZM102 139.633L109.184 127.189L120.816 133.905V138.024L110.492 132.063L104.402 142.605L125.571 179.264L133.779 193.489L152.002 188.605L155.685 184.918L165.777 174.83L156.38 158.561L124.388 140.087V144.962V177.214L120.816 171.037V143.941V120.223H134.248L136.308 123.789H124.388V135.964L161.041 157.132L175.266 165.341L188.605 152.002L189.955 146.971L193.647 133.186L177.377 123.789H140.43L142.865 128.014L158.991 155.945L152.814 152.378L139.266 128.914L127.407 108.372L138.446 102L139.039 101.657L139.633 102M64.3674 102L64.9658 102.343L65.559 102L76.5933 95.6275L64.7382 75.0904L51.1907 51.6266L45.0082 48.0554L61.1342 75.9854L63.5741 80.2106H26.6278L10.3577 70.8186L14.0496 57.0348L15.3992 52.0023L28.738 38.6635L42.9628 46.8727L79.6168 68.036V80.2106H67.6927L69.7516 83.7821H83.1837V60.0629V32.9679L79.6168 26.7901V59.0382V63.9174L47.6193 45.4441L38.2275 29.174L48.3151 19.0817L52.0023 15.3992L70.2253 10.5154L78.4342 24.7401L99.5977 61.3943L93.5124 71.941L83.1837 65.9764V70.0949L94.8158 76.8112L102 64.3674M64.3674 102L61.3943 100.284L71.723 94.3241L65.6332 83.7821H23.307H6.88382L2 102L3.34965 107.037L7.04152 120.816H25.8301L57.8275 102.343L57.2337 102L53.6024 99.9034L25.6724 83.7821H32.8057L56.2741 97.3298L64.3674 102ZM139.633 102L142.605 103.721L132.282 109.68L138.372 120.223H180.698H197.121L202 102L200.655 96.9679L196.959 83.1837H178.171L146.177 101.657L146.771 102L150.398 104.097L178.332 120.223H171.195L147.73 106.675L139.633 102ZM139.633 102L127.189 94.8158L133.905 83.1837H138.028L132.063 93.5124L142.605 99.5977L179.264 78.4342L193.489 70.2253L188.605 52.0023L184.918 48.3151L174.83 38.2275L158.561 47.6193L140.087 79.6168H144.962H177.214L171.037 83.1837H143.941H120.223V69.7516L123.789 67.6927V79.6168H135.964L157.132 42.9628L165.341 28.738L152.002 15.3992L146.971 14.0496L133.186 10.3577L123.789 26.6278V63.5741L128.014 61.1342L155.945 45.0082L152.378 51.1907L128.914 64.7382L108.372 76.5933L102 65.559L101.657 64.9658L102 64.3674M102 64.3674L103.716 61.3943L109.68 71.723L120.223 65.6332V23.307V6.88382L102 2L96.9679 3.34965L83.1837 7.04152V25.8301L101.657 57.8275L102 57.2337L104.097 53.6024L120.223 25.6724V32.8057L106.675 56.2741L102 64.3674Z" stroke="#D4D4D4" stroke-width="2" stroke-miterlimit="10"/>
</svg>
