<svg width="193" height="193" viewBox="0 0 193 193" fill="none" xmlns="http://www.w3.org/2000/svg">
<path d="M103.67 16.0965C107.257 13.0138 106.475 8.66249 106.475 8.66249C106.475 8.66249 109.342 15.1037 104.339 19.5256C103.932 19.8847 103.527 20.2166 103.12 20.525C102.8 20.1285 102.489 19.7085 102.182 19.2643C98.4038 13.7724 102.752 8.21228 102.752 8.21228C102.752 8.21228 100.936 12.2443 103.666 16.1001L103.67 16.0965Z" fill="#D4D4D4"/>
<path d="M118.031 135.23C118.649 134.804 119.398 134.558 120.2 134.558C122.326 134.558 124.045 136.277 124.045 138.401C124.045 139.999 123.069 141.371 121.678 141.95C120.437 142.8 118.75 142.872 117.413 141.998C115.635 140.84 115.128 138.464 116.287 136.683C116.727 136.007 117.34 135.519 118.031 135.23Z" fill="#D4D4D4"/>
<path d="M94.3482 140.309C95.0972 140.284 95.86 140.482 96.5365 140.917C98.3241 142.067 98.8407 144.442 97.691 146.228C96.8268 147.575 95.2613 148.198 93.7785 147.933C92.271 147.976 90.8171 147.126 90.1653 145.668C89.2956 143.732 90.1557 141.458 92.0923 140.589C92.8268 140.26 93.6089 140.178 94.3482 140.309Z" fill="#D4D4D4"/>
<path d="M71.6786 131.786C72.3208 132.173 72.8573 132.748 73.1904 133.481C74.0739 135.412 73.2242 137.692 71.2924 138.571C69.8379 139.237 68.1807 138.918 67.0799 137.895C65.7902 137.117 65.0268 135.615 65.2639 134.037C65.5778 131.936 67.5337 130.493 69.6351 130.806C70.4324 130.927 71.1324 131.28 71.6835 131.791L71.6786 131.786Z" fill="#D4D4D4"/>
<path d="M57.2211 112.362C57.554 113.033 57.6895 113.806 57.5735 114.602C57.2693 116.703 55.3227 118.161 53.2213 117.856C51.6369 117.63 50.4196 116.466 50.0429 115.008C49.3763 113.656 49.5453 111.981 50.6032 110.778C52.004 109.18 54.4287 109.02 56.0279 110.421C56.6313 110.952 57.0325 111.628 57.2162 112.357L57.2211 112.362Z" fill="#D4D4D4"/>
<path d="M55.5593 88.2102C55.4726 88.9537 55.1734 89.6779 54.6465 90.2862C53.2554 91.8892 50.8305 92.0636 49.2268 90.6731C48.0192 89.6248 47.6183 87.9887 48.0917 86.559C48.2656 85.0623 49.309 83.7442 50.8499 83.3049C52.8932 82.7207 55.0183 83.8939 55.6076 85.9361C55.8299 86.7086 55.8012 87.4956 55.5642 88.2059L55.5593 88.2102Z" fill="#D4D4D4"/>
<path d="M67.2296 66.9944C66.7564 67.5738 66.1095 68.0228 65.3364 68.2497C63.2977 68.849 61.1625 67.6848 60.5638 65.6468C60.1146 64.112 60.6652 62.5236 61.8342 61.5767C62.7853 60.4138 64.3798 59.8676 65.9157 60.3311C67.9496 60.9394 69.1041 63.0837 68.4957 65.1163C68.2634 65.8888 67.8144 66.5309 67.2296 67.0041V66.9944Z" fill="#D4D4D4"/>
<path d="M88.5171 55.4544C87.8074 55.6864 87.0198 55.7151 86.2467 55.4885C84.2081 54.8895 83.0445 52.7555 83.6432 50.718C84.0928 49.1826 85.4157 48.1444 86.913 47.9803C88.3482 47.5167 89.9807 47.9223 91.0193 49.1343C92.4013 50.7469 92.2124 53.1708 90.5992 54.5517C89.9855 55.0733 89.2613 55.3725 88.5123 55.4544H88.5171Z" fill="#D4D4D4"/>
<path d="M112.675 57.246C111.95 57.0574 111.274 56.6519 110.747 56.0436C109.356 54.4406 109.53 52.012 111.134 50.6262C112.341 49.5785 114.018 49.4192 115.365 50.0903C116.819 50.4717 117.979 51.6981 118.195 53.2818C118.485 55.3871 117.017 57.323 114.911 57.613C114.114 57.7241 113.341 57.5789 112.67 57.246H112.675Z" fill="#D4D4D4"/>
<path d="M132.02 71.8129C131.513 71.2625 131.16 70.5582 131.049 69.761C130.745 67.6608 132.204 65.715 134.305 65.4109C135.889 65.1834 137.387 65.9564 138.155 67.2504C139.174 68.3608 139.483 70.012 138.812 71.4653C137.918 73.3923 135.633 74.2275 133.706 73.3343C132.977 72.9958 132.402 72.4556 132.02 71.8129Z" fill="#D4D4D4"/>
<path d="M140.42 94.5163C140.29 93.7776 140.377 92.9955 140.71 92.2664C141.594 90.3346 143.87 89.4855 145.801 90.369C147.256 91.0353 148.101 92.4934 148.048 93.9949C148.304 95.4771 147.671 97.0366 146.318 97.896C144.526 99.0354 142.15 98.5049 141.014 96.7131C140.585 96.0323 140.392 95.2695 140.416 94.5211L140.42 94.5163Z" fill="#D4D4D4"/>
<path d="M135.203 118.161C135.494 117.471 135.991 116.862 136.667 116.422C138.454 115.273 140.831 115.79 141.981 117.577C142.846 118.924 142.763 120.604 141.908 121.84C141.324 123.226 139.947 124.196 138.343 124.187C136.218 124.177 134.508 122.444 134.523 120.324C134.523 119.517 134.778 118.774 135.203 118.156V118.161Z" fill="#D4D4D4"/>
<path d="M112.211 112.212C111.578 114.945 110.829 117.741 110.018 120.464C107.289 119.658 104.54 118.765 101.902 117.799C99.8932 119.759 97.7532 121.7 95.5938 123.554C93.7344 121.405 91.9088 119.165 90.2081 116.929C87.4549 117.49 84.6051 117.972 81.7886 118.364C81.3878 115.548 81.0644 112.676 80.8423 109.88C78.2236 108.866 75.5676 107.726 72.9828 106.534C74.1669 103.951 75.4463 101.358 76.7746 98.8856C75.1228 96.6164 73.5 94.2217 71.9731 91.827C74.3696 90.291 76.8476 88.804 79.3009 87.4425C79.1367 84.6422 79.0698 81.7496 79.0788 78.9107C81.9244 78.9107 84.8127 79.0024 87.6142 79.1811C88.9914 76.7332 90.4984 74.2661 92.044 71.8804C94.4351 73.4206 96.8165 75.0579 99.0773 76.7188C101.56 75.4055 104.159 74.14 106.753 72.9722C107.931 75.56 109.052 78.2251 110.051 80.8474C112.849 81.0833 115.723 81.4267 118.534 81.8419C118.123 84.6567 117.626 87.5004 117.051 90.2476C119.278 91.9622 121.51 93.7962 123.649 95.6701C121.785 97.8138 119.823 99.9435 117.853 101.942C118.799 104.583 119.683 107.336 120.471 110.069C117.742 110.865 114.945 111.594 112.206 112.212H112.211ZM107.221 115.307C107.834 113.299 108.419 111.15 108.912 108.9C111.168 108.417 113.322 107.848 115.332 107.244C114.761 105.226 114.09 103.101 113.288 100.938C114.925 99.3111 116.428 97.6695 117.795 96.0757C116.225 94.6852 114.51 93.2609 112.665 91.8752C113.163 89.6199 113.539 87.4286 113.824 85.3471C111.752 85.0236 109.54 84.7533 107.235 84.5837C106.433 82.4207 105.564 80.3688 104.68 78.4665C102.763 79.3162 100.753 80.2825 98.7242 81.3827C96.8793 79.9922 95.0386 78.7417 93.2661 77.6168C92.1116 79.3694 90.9474 81.2674 89.8363 83.2904C87.5321 83.1165 85.3052 83.0586 83.2092 83.0683C83.1845 85.1685 83.2328 87.3942 83.3927 89.693C81.3637 90.7932 79.4554 91.9422 77.6974 93.0919C78.8133 94.8687 80.0547 96.7178 81.4361 98.5669C80.3251 100.59 79.345 102.589 78.4844 104.501C80.383 105.394 82.4313 106.278 84.59 107.09C84.75 109.393 85.0059 111.604 85.3149 113.68C87.397 113.405 89.5949 113.043 91.8509 112.555C93.2275 114.409 94.6427 116.128 96.0241 117.707C97.6282 116.351 99.28 114.858 100.917 113.231C103.077 114.042 105.197 114.728 107.216 115.307H107.221Z" fill="#D4D4D4"/>
<path d="M102.873 102.826C102.526 103.618 102.149 104.414 101.739 105.206C100.855 105.115 99.9801 104.999 99.1249 104.859C98.4001 105.337 97.6566 105.8 96.8835 106.244C96.1883 105.69 95.5172 105.119 94.8744 104.54C94.0096 104.554 93.1303 104.54 92.2371 104.497C91.9523 103.652 91.6964 102.812 91.4688 101.976C90.7344 101.518 90.0005 101.03 89.2763 100.513C89.493 99.6485 89.7301 98.8042 89.9909 97.9786C89.6191 97.1959 89.2666 96.3896 88.9329 95.564C89.5805 94.9557 90.2425 94.3715 90.9082 93.8162C91.0198 92.9568 91.1599 92.0872 91.3288 91.2133C92.2033 91.0498 93.0724 90.914 93.9324 90.8078C94.493 90.1463 95.0772 89.4903 95.691 88.8427C96.5166 89.1813 97.3186 89.5386 98.1014 89.9103C98.9276 89.6545 99.7773 89.4173 100.642 89.2097C101.154 89.9387 101.637 90.6732 102.091 91.4119C102.926 91.6436 103.767 91.9043 104.608 92.1934C104.646 93.0824 104.651 93.9611 104.637 94.8301C105.211 95.4771 105.782 96.1482 106.332 96.8483C105.883 97.6165 105.414 98.3595 104.931 99.0788C105.066 99.934 105.178 100.808 105.264 101.691C104.473 102.097 103.675 102.469 102.878 102.812L102.873 102.826ZM104.878 110.996C105.569 110.474 106.642 109.47 107.719 107.698C109.496 106.631 110.506 105.564 111.032 104.878C111.332 104.067 111.689 102.642 111.636 100.571C112.554 98.7119 112.829 97.2731 112.897 96.4089C112.708 95.564 112.24 94.1735 111.076 92.459C110.844 90.4022 110.293 89.0407 109.887 88.273C109.274 87.6647 108.124 86.7474 106.221 85.9314C104.912 84.3237 103.714 83.4788 102.956 83.0539C102.11 82.8752 100.647 82.7207 98.6035 83.0684C96.6325 82.4256 95.1641 82.3587 94.2993 82.4112C93.4876 82.7208 92.1792 83.3774 90.6475 84.7727C88.6432 85.2941 87.3728 86.0328 86.6722 86.5446C86.1556 87.2398 85.4114 88.5054 84.8755 90.509C83.4699 92.0347 82.8031 93.3383 82.4893 94.1494C82.4307 95.0136 82.4893 96.4819 83.1223 98.4512C82.7644 100.494 82.9093 101.952 83.0831 102.801C83.5032 103.56 84.3438 104.762 85.9425 106.08C86.7446 107.987 87.6577 109.142 88.2612 109.76C89.0246 110.17 90.3819 110.73 92.4399 110.972C94.1496 112.145 95.5359 112.618 96.3814 112.811C97.2462 112.743 98.6904 112.478 100.555 111.575C102.627 111.638 104.053 111.285 104.869 110.996H104.878Z" fill="#D4D4D4"/>
<path d="M97.6759 97.7179C97.6856 97.6883 97.7001 97.6648 97.7097 97.6352C97.7387 97.6255 97.7628 97.6116 97.7918 97.6014C97.7918 97.5724 97.7821 97.5434 97.7773 97.5151C97.7918 97.4903 97.8111 97.4668 97.8256 97.4421C97.8063 97.4227 97.787 97.3986 97.7677 97.3745C97.7677 97.3455 97.7677 97.3165 97.7677 97.2876C97.7387 97.2779 97.7097 97.2731 97.6856 97.2634C97.6711 97.2393 97.6566 97.2151 97.6421 97.191C97.6132 97.2013 97.5842 97.2103 97.5601 97.2151C97.5359 97.2013 97.5069 97.191 97.4828 97.1765C97.4635 97.2013 97.4442 97.22 97.4243 97.2441C97.3959 97.2441 97.3669 97.2489 97.338 97.2544C97.338 97.2827 97.3283 97.3123 97.3283 97.3407C97.3042 97.3606 97.2849 97.3793 97.2607 97.3986C97.2752 97.4228 97.2849 97.4517 97.2993 97.4759C97.2897 97.5048 97.28 97.5338 97.2752 97.5585C97.2993 97.5724 97.3229 97.5869 97.3476 97.6062C97.3573 97.6352 97.3621 97.6648 97.3712 97.6931C97.4007 97.6931 97.4297 97.6931 97.4587 97.6931C97.478 97.713 97.5021 97.7317 97.5214 97.7511C97.5456 97.7366 97.5697 97.7179 97.5938 97.7028C97.6228 97.7076 97.6518 97.713 97.6808 97.7179H97.6759Z" fill="#D4D4D4"/>
<path d="M124.765 147.643C125.683 148.034 126.553 148.604 127.267 149.357C127.514 149.598 127.75 149.893 127.977 150.207C128.214 150.545 128.301 150.68 128.523 151.085C128.862 151.747 129.084 152.432 129.238 153.123C129.441 154.176 129.494 155.228 129.431 156.247C128.538 155.74 127.688 155.127 126.915 154.379C126.417 153.871 125.968 153.311 125.596 152.67C125.378 152.259 125.311 152.114 125.156 151.732C125.016 151.37 124.9 151.013 124.833 150.675C124.591 149.666 124.582 148.623 124.76 147.643H124.765Z" fill="#D4D4D4"/>
<path d="M93.2999 154.393C93.8599 155.218 94.2806 156.17 94.4785 157.189C94.5558 157.527 94.5944 157.903 94.6185 158.29C94.6379 158.7 94.6379 158.864 94.6041 159.323C94.5268 160.061 94.3476 160.757 94.1019 161.423C93.7006 162.422 93.1792 163.331 92.5751 164.156C92.0971 163.248 91.7151 162.273 91.4694 161.225C91.324 160.53 91.2516 159.815 91.2854 159.072C91.324 158.608 91.3433 158.449 91.426 158.043C91.5026 157.667 91.5992 157.3 91.7253 156.976C92.0681 155.996 92.6233 155.117 93.2999 154.388V154.393Z" fill="#D4D4D4"/>
<path d="M63.1812 143.065C63.2108 144.06 63.0466 145.088 62.6598 146.054C62.5391 146.378 62.3749 146.716 62.1818 147.054C61.9742 147.411 61.8867 147.547 61.6115 147.918C61.148 148.498 60.6217 148.985 60.0512 149.414C59.1768 150.038 58.2449 150.521 57.2881 150.892C57.3754 149.874 57.583 148.845 57.9452 147.831C58.2011 147.17 58.5247 146.527 58.9551 145.919C59.2348 145.552 59.3411 145.427 59.6263 145.132C59.8967 144.857 60.177 144.601 60.4576 144.398C61.2735 143.761 62.2204 143.321 63.186 143.07L63.1812 143.065Z" fill="#D4D4D4"/>
<path d="M43.966 117.263C43.4491 118.117 42.7584 118.894 41.913 119.494C41.6377 119.701 41.314 119.894 40.9711 120.078C40.604 120.266 40.4591 120.334 40.0243 120.493C39.3191 120.73 38.6139 120.855 37.9037 120.908C36.8314 120.961 35.7832 120.865 34.7834 120.657C35.4112 119.846 36.1406 119.093 36.9909 118.436C37.5608 118.016 38.1839 117.649 38.8698 117.374C39.3046 117.215 39.4592 117.171 39.8601 117.075C40.2369 116.987 40.6088 116.925 40.9566 116.906C41.9903 116.809 43.024 116.949 43.9708 117.263H43.966Z" fill="#D4D4D4"/>
<path d="M41.7639 85.1686C40.8702 85.6079 39.8655 85.8879 38.827 85.9362C38.4792 85.9652 38.1024 85.9507 37.7208 85.9169C37.3103 85.8789 37.1508 85.8542 36.6968 85.7576C35.9771 85.579 35.3104 85.2989 34.6873 84.961C33.7551 84.425 32.9291 83.7781 32.1948 83.0635C33.1609 82.7207 34.185 82.4842 35.2525 82.3876C35.9626 82.3442 36.6774 82.3725 37.4117 82.5083C37.8657 82.6097 38.0203 82.6531 38.4067 82.7932C38.769 82.9235 39.1168 83.0732 39.4211 83.2416C40.3438 83.7201 41.136 84.3961 41.7639 85.1686Z" fill="#D4D4D4"/>
<path d="M57.2649 56.9805C56.2745 56.8645 55.2797 56.5604 54.3809 56.0389C54.0767 55.8746 53.7675 55.6621 53.4584 55.4257C53.1348 55.1698 53.0139 55.0636 52.6855 54.7351C52.1783 54.1945 51.7677 53.6006 51.4248 52.9826C50.932 52.0266 50.5843 51.0368 50.3572 50.0373C51.3571 50.269 52.3425 50.6215 53.2941 51.1237C53.9124 51.4713 54.5018 51.8817 55.0428 52.3936C55.3664 52.7267 55.4727 52.8474 55.7286 53.1709C55.9655 53.4799 56.1731 53.7889 56.3373 54.0979C56.854 55.0007 57.1538 55.9955 57.2649 56.9854V56.9805Z" fill="#D4D4D4"/>
<path d="M85.5563 41.6456C84.7838 41.013 84.1121 40.2212 83.6383 39.2942C83.4693 38.99 83.3245 38.6423 83.1941 38.2802C83.0589 37.8891 83.0155 37.7346 82.9135 37.2808C82.7789 36.5517 82.7542 35.8322 82.8024 35.1224C82.9044 34.0505 83.1458 33.0318 83.4989 32.0709C84.2135 32.8048 84.8508 33.6353 85.3824 34.572C85.7156 35.1997 85.9908 35.8612 86.1646 36.5855C86.2611 37.0393 86.2859 37.1987 86.3191 37.6091C86.3487 37.9954 86.3583 38.372 86.3342 38.7196C86.2811 39.7577 85.9956 40.7572 85.5514 41.6504L85.5563 41.6456Z" fill="#D4D4D4"/>
<path d="M117.65 44.0307C117.341 43.0843 117.205 42.051 117.307 41.0178C117.331 40.6701 117.394 40.3032 117.481 39.9217C117.577 39.521 117.626 39.3665 117.785 38.9319C118.065 38.2415 118.437 37.6283 118.857 37.0585C119.519 36.2135 120.277 35.4844 121.094 34.8665C121.297 35.8707 121.388 36.9185 121.33 37.9904C121.273 38.6953 121.142 39.4051 120.9 40.1052C120.736 40.5398 120.669 40.6846 120.475 41.0516C120.292 41.3944 120.099 41.7131 119.886 41.9883C119.282 42.8332 118.5 43.5189 117.645 44.0307H117.65Z" fill="#D4D4D4"/>
<path d="M143.357 63.3777C143.613 62.4121 144.058 61.4755 144.7 60.6595C144.908 60.3795 145.164 60.1047 145.439 59.8342C145.739 59.549 145.859 59.4476 146.232 59.1679C146.84 58.7429 147.483 58.4192 148.149 58.1682C149.163 57.8159 150.192 57.6131 151.216 57.5307C150.844 58.487 150.351 59.414 149.724 60.283C149.294 60.8478 148.801 61.3741 148.217 61.8327C147.845 62.1086 147.709 62.1949 147.352 62.3976C147.014 62.5865 146.676 62.7501 146.348 62.8708C145.381 63.2528 144.352 63.4073 143.357 63.3777Z" fill="#D4D4D4"/>
<path d="M154.515 93.5507C155.249 92.8796 156.134 92.3243 157.114 91.9906C157.438 91.8705 157.805 91.7739 158.181 91.6967C158.587 91.6194 158.747 91.6001 159.21 91.5615C159.954 91.5319 160.669 91.6098 161.36 91.7595C162.403 92.0105 163.379 92.3968 164.287 92.8796C163.456 93.4782 162.543 93.9948 161.543 94.3907C160.876 94.6321 160.176 94.8108 159.438 94.8784C158.974 94.9073 158.814 94.9074 158.404 94.888C158.017 94.8639 157.645 94.8204 157.307 94.7432C156.288 94.5452 155.336 94.1204 154.515 93.5507Z" fill="#D4D4D4"/>
<path d="M147.589 124.964C148.569 124.795 149.613 124.809 150.622 125.056C150.961 125.128 151.318 125.244 151.68 125.384C152.062 125.538 152.207 125.607 152.617 125.828C153.26 126.205 153.815 126.658 154.323 127.156C155.067 127.934 155.675 128.788 156.178 129.681C155.153 129.739 154.105 129.681 153.052 129.469C152.362 129.31 151.68 129.082 151.019 128.745C150.613 128.517 150.477 128.431 150.144 128.194C149.83 127.962 149.541 127.726 149.299 127.479C148.55 126.76 147.98 125.891 147.599 124.969L147.589 124.964Z" fill="#D4D4D4"/>
<path d="M120.132 120.179C117.099 138.86 125.383 135.301 128.344 128.431C135.232 125.514 138.841 117.253 120.132 120.179Z" fill="#D4D4D4"/>
<path d="M104.26 128.783C91.604 142.858 100.502 144.341 106.704 140.164C114.075 141.429 121.582 136.431 104.26 128.783Z" fill="#D4D4D4"/>
<path d="M86.2521 127.445C67.993 132.448 74.6732 138.502 82.1513 138.339C87.6673 143.389 96.6855 143.234 86.2521 127.445Z" fill="#D4D4D4"/>
<path d="M71.8283 116.587C53.7622 110.928 56.1048 119.634 62.486 123.535C64.3943 130.763 72.0643 135.509 71.8283 116.587Z" fill="#D4D4D4"/>
<path d="M65.5633 99.6581C53.4241 85.1347 50.6901 93.7244 53.9458 100.455C51.6417 107.567 55.5254 115.703 65.5633 99.6581Z" fill="#D4D4D4"/>
<path d="M69.4517 82.0303C67.0992 63.2527 60.1479 68.9981 59.2497 76.4243C53.4628 81.166 52.3325 90.1082 69.4517 82.0303Z" fill="#D4D4D4"/>
<path d="M82.2575 69.3023C90.435 52.2341 81.4796 53.3157 76.7064 59.0713C69.2779 59.9306 63.486 66.8448 82.2575 69.3023Z" fill="#D4D4D4"/>
<path d="M99.9119 65.5171C116.022 55.5752 107.907 51.645 100.777 53.9095C94.0627 50.6165 85.4495 53.3011 99.9119 65.5171Z" fill="#D4D4D4"/>
<path d="M116.814 71.8709C135.745 72.2143 131.04 64.5226 123.818 62.572C119.949 56.1744 111.254 53.7793 116.814 71.8709Z" fill="#D4D4D4"/>
<path d="M127.595 86.3515C143.333 96.8676 143.536 87.8578 138.517 82.3146C138.725 74.8407 132.702 68.1297 127.595 86.3515Z" fill="#D4D4D4"/>
<path d="M128.832 104.361C136.382 121.715 141.43 114.245 140.203 106.868C144.419 100.692 142.985 91.7932 128.832 104.361Z" fill="#D4D4D4"/>
<path d="M138.552 138.691C134.508 142.819 131.074 148.449 128.76 154.967L127.016 150.607C127.557 147.218 130.548 140.84 135.562 135.683C140.745 130.7 147.145 127.75 150.541 127.228L154.893 128.996C148.357 131.27 142.705 134.674 138.552 138.691Z" fill="#D4D4D4"/>
<path d="M109.743 154.311C104.111 155.6 98.1739 158.478 92.7007 162.717L93.5896 158.106C95.8793 155.547 101.845 151.795 108.849 150.168C115.906 148.778 122.886 149.753 126.026 151.148L128.731 154.987C122.002 153.369 115.408 153.177 109.743 154.311Z" fill="#D4D4D4"/>
<path d="M77.0547 151.882C71.6159 149.922 65.0654 149.135 58.1725 149.743L61.4136 146.344C64.7226 145.432 71.7704 145.494 78.5423 147.913C85.2322 150.559 90.5751 155.151 92.4592 158.019L92.6572 162.713C87.8744 157.715 82.4259 153.992 77.0498 151.882H77.0547Z" fill="#D4D4D4"/>
<path d="M50.8739 132.173C47.3574 127.586 42.2758 123.386 36.146 120.17L40.7107 119.064C43.9905 120.082 49.8837 123.945 54.2744 129.643C58.472 135.481 60.4818 142.235 60.5156 145.668L58.1435 149.724C56.825 142.935 54.2555 136.856 50.8691 132.178L50.8739 132.173Z" fill="#D4D4D4"/>
<path d="M39.5079 101.445C39.0345 95.6895 37.025 89.4028 33.6099 83.387L38.0491 84.9224C40.2566 87.5488 43.1258 93.9852 43.7345 101.15C44.1065 108.331 42.1453 115.1 40.3193 118.002L36.1314 120.13C38.6915 113.704 39.8219 107.205 39.503 101.44L39.5079 101.445Z" fill="#D4D4D4"/>
<path d="M46.5651 69.4519C49.2798 64.3529 50.9897 57.9849 51.3713 51.0753L54.2743 54.7691C54.7091 58.1731 53.6416 65.1351 50.2797 71.4942C46.71 77.7375 41.4013 82.3676 38.2905 83.8263L33.6146 83.3525C39.2469 79.3308 43.7055 74.4737 46.5602 69.4519H46.5651Z" fill="#D4D4D4"/>
<path d="M69.8042 46.3533C74.8477 43.5287 79.7307 39.0962 83.7832 33.4905L84.228 38.1643C82.7494 41.2642 78.0885 46.5464 71.8235 50.0759C65.4426 53.3979 58.472 54.4261 55.067 53.9724L51.3907 51.0513C58.3034 50.7084 64.684 49.0379 69.7993 46.3533H69.8042Z" fill="#D4D4D4"/>
<path d="M101.849 39.4825C107.617 39.8301 114.123 38.7389 120.568 36.2185L118.412 40.395C115.496 42.2057 108.713 44.1274 101.535 43.7122C94.3717 43.0603 87.9522 40.1536 85.3342 37.9374L83.8224 33.4905C89.8213 36.938 96.0965 38.9803 101.854 39.4873L101.849 39.4825Z" fill="#D4D4D4"/>
<path d="M132.527 51.0173C137.194 54.426 143.256 57.0287 150.042 58.3856L145.975 60.7319C142.541 60.6788 135.798 58.6268 129.982 54.4022C124.311 49.9793 120.475 44.0693 119.476 40.7861L120.611 36.228C123.794 42.3697 127.967 47.4781 132.537 51.0173H132.527Z" fill="#D4D4D4"/>
<path d="M152.095 77.2982C154.173 82.6869 157.868 88.1529 162.843 92.9616L158.148 92.7395C155.289 90.8373 150.724 85.4727 148.115 78.7707C145.734 71.9873 145.709 64.9426 146.642 61.6396L150.062 58.4192C149.415 65.3047 150.163 71.857 152.095 77.303V77.2982Z" fill="#D4D4D4"/>
<path d="M154.337 109.982C153.173 115.64 153.322 122.231 154.907 128.967L151.082 126.243C149.704 123.1 148.768 116.118 150.197 109.069C151.864 102.077 155.651 96.1337 158.226 93.8596L162.844 92.9954C158.574 98.4421 155.661 104.356 154.337 109.982Z" fill="#D4D4D4"/>
<path d="M91.6185 177.033C92.464 176.724 93.2323 176.005 93.7978 174.817C94.8068 172.693 93.662 172.301 93.662 172.301C93.662 172.301 93.3192 174.556 91.846 173.929C90.2956 174.334 90.2908 172.05 90.2908 172.05C90.2908 172.05 89.1025 172.268 89.7881 174.517C90.1695 175.778 90.8267 176.599 91.6137 177.033H91.6185Z" fill="#D4D4D4"/>
<path d="M49.5164 161.206C50.3907 161.399 51.4292 161.215 52.5498 160.52C54.5447 159.279 53.7961 158.333 53.7961 158.333C53.7961 158.333 52.289 160.047 51.3905 158.719C49.869 158.222 51.1007 156.3 51.1007 156.3C51.1007 156.3 49.9849 155.841 49.3425 158.101C48.985 159.366 49.0912 160.414 49.5212 161.201L49.5164 161.206Z" fill="#D4D4D4"/>
<path d="M22.6646 125.133C23.2973 125.77 24.2682 126.176 25.5869 126.195C27.9346 126.229 27.8186 125.032 27.8186 125.032C27.8186 125.032 25.6256 125.66 25.5821 124.057C24.5726 122.815 26.6448 121.864 26.6448 121.864C26.6448 121.864 25.9541 120.874 24.191 122.429C23.2007 123.303 22.7273 124.24 22.6646 125.133Z" fill="#D4D4D4"/>
<path d="M19.5822 80.2826C19.7706 81.1613 20.3696 82.0256 21.4661 82.7546C23.4224 84.0534 23.973 82.9809 23.973 82.9809C23.973 82.9809 21.7897 82.3195 22.6205 80.9537C22.4418 79.3647 24.7024 79.6833 24.7024 79.6833C24.7024 79.6833 24.6542 78.4769 22.3307 78.8342C21.0265 79.0316 20.1184 79.5632 19.5822 80.2826Z" fill="#D4D4D4"/>
<path d="M41.2517 40.8827C40.933 41.7229 40.9715 42.7755 41.4981 43.9778C42.4448 46.1263 43.4882 45.5228 43.4882 45.5228C43.4882 45.5228 42.0053 43.7894 43.4448 43.0845C44.1548 41.6505 45.8841 43.1424 45.8841 43.1424C45.8841 43.1424 46.4928 42.1044 44.3481 41.1483C43.1453 40.6124 42.0922 40.5689 41.2517 40.8827Z" fill="#D4D4D4"/>
<path d="M80.7886 19.4446C80.0692 19.9805 79.5279 20.8834 79.3251 22.1822C78.9582 24.4999 80.1603 24.5578 80.1603 24.5578C80.1603 24.5578 79.8513 22.2982 81.441 22.4864C82.8128 21.6608 83.4597 23.848 83.4597 23.848C83.4597 23.848 84.537 23.3024 83.2473 21.3373C82.5231 20.2364 81.6631 19.6329 80.7838 19.4397L80.7886 19.4446Z" fill="#D4D4D4"/>
<path d="M125.644 22.781C124.746 22.8389 123.808 23.3121 122.93 24.2923C121.365 26.045 122.35 26.7403 122.35 26.7403C122.35 26.7403 123.317 24.6737 124.548 25.6877C126.146 25.736 125.509 27.9281 125.509 27.9281C125.509 27.9281 126.707 28.0536 126.688 25.7022C126.673 24.384 126.277 23.4087 125.644 22.7762V22.781Z" fill="#D4D4D4"/>
<path d="M161.577 49.8248C160.79 49.3903 159.747 49.2792 158.476 49.6317C156.211 50.2594 156.66 51.3796 156.66 51.3796C156.66 51.3796 158.588 50.1628 159.08 51.6838C160.399 52.5915 158.679 54.0883 158.679 54.0883C158.679 54.0883 159.622 54.8413 160.872 52.8522C161.572 51.7369 161.766 50.7036 161.577 49.8248Z" fill="#D4D4D4"/>
<path d="M177.175 91.996C176.75 91.2042 175.929 90.547 174.673 90.1565C172.426 89.4607 172.2 90.6435 172.2 90.6435C172.2 90.6435 174.48 90.6635 174.069 92.2084C174.687 93.6858 172.431 94.0141 172.431 94.0141C172.431 94.0141 172.818 95.1584 174.948 94.159C176.141 93.5989 176.861 92.8361 177.175 91.996Z" fill="#D4D4D4"/>
<path d="M167.49 135.901C167.558 135.007 167.225 134.007 166.379 132.998C164.867 131.202 164.036 132.076 164.036 132.076C164.036 132.076 165.944 133.322 164.761 134.404C164.486 135.977 162.409 135.036 162.409 135.036C162.409 135.036 162.114 136.205 164.442 136.519C165.746 136.692 166.77 136.441 167.49 135.901Z" fill="#D4D4D4"/>
<path d="M135.595 167.603C136.136 166.889 136.397 165.87 136.227 164.562C135.928 162.235 134.755 162.519 134.755 162.519C134.755 162.519 135.687 164.6 134.107 164.871C133.02 166.049 131.784 164.132 131.784 164.132C131.784 164.132 130.904 164.958 132.697 166.479C133.701 167.333 134.697 167.671 135.595 167.608V167.603Z" fill="#D4D4D4"/>
<path d="M161.945 162.205C158.728 162.306 157.168 160.747 157.168 160.747C157.255 159.497 156.902 157.894 156.047 156.276C157.656 157.14 159.259 157.503 160.51 157.421C160.51 157.421 162.065 158.99 161.945 162.205ZM186.74 117.123C184.087 118.948 181.929 118.474 181.929 118.474C181.325 117.374 180.16 116.215 178.571 115.322C180.393 115.177 181.933 114.617 182.947 113.873C182.947 113.873 185.102 114.356 186.74 117.123ZM183.214 65.7971C181.967 68.7616 179.9 69.5341 179.9 69.5341C178.798 68.936 177.19 68.5884 175.369 68.6946C176.823 67.5884 177.818 66.2848 178.267 65.1116C178.267 65.1116 180.34 64.3536 183.218 65.7971H183.214ZM152.487 24.5242C153.048 27.6917 151.719 29.4589 151.719 29.4589C150.468 29.5506 148.927 30.1251 147.454 31.2018C148.082 29.4878 148.207 27.851 147.951 26.6198C147.951 26.6198 149.284 24.8574 152.487 24.5194V24.5242ZM104.313 6.40817C106.496 8.76921 106.337 10.9758 106.337 10.9758C105.333 11.7291 104.352 13.0472 103.69 14.7468C103.289 12.9651 102.511 11.5214 101.632 10.6234C101.632 10.6234 101.801 8.42159 104.308 6.40817H104.313ZM53.9898 17.1996C57.1055 18.006 58.1631 19.947 58.1631 19.947C57.7284 21.1251 57.6124 22.7619 57.9799 24.5484C56.6805 23.2689 55.2455 22.4674 54.0187 22.1921C54.0187 22.1921 52.9706 20.2463 53.9898 17.1996ZM17.491 53.48C20.5487 52.4757 22.4857 53.5331 22.4857 53.5331C22.7562 54.7596 23.5435 56.1984 24.8188 57.507C23.0315 57.1302 21.3939 57.2364 20.2105 57.6663C20.2105 57.6663 18.2784 56.599 17.4862 53.48H17.491ZM6.40998 103.72C8.43879 101.223 10.6414 101.064 10.6414 101.064C11.5303 101.947 12.9745 102.734 14.7521 103.145C13.047 103.796 11.7234 104.767 10.9651 105.766C10.9651 105.766 8.76239 105.911 6.40998 103.714V103.72ZM24.2585 151.974C24.6159 148.778 26.3839 147.455 26.3839 147.455C27.6107 147.72 29.2483 147.6 30.9679 146.982C29.8858 148.449 29.2966 149.985 29.2 151.235C29.2 151.235 27.4224 152.549 24.2585 151.974ZM65.375 182.924C63.9453 180.042 64.7184 177.975 64.7184 177.975C65.8922 177.535 67.206 176.546 68.3219 175.102C68.2054 176.922 68.5392 178.53 69.133 179.636C69.133 179.636 68.3503 181.702 65.375 182.929V182.924ZM116.703 186.738C113.945 185.087 113.472 182.929 113.472 182.929C114.221 181.919 114.796 180.385 114.945 178.564C115.834 180.162 116.983 181.331 118.08 181.939C118.08 181.939 118.539 184.097 116.699 186.738H116.703ZM150.937 151.143C148.888 149.994 146.295 149.203 143.097 149.087C136.793 148.855 131.431 152.273 129.258 155.933C125.006 155.76 119.215 158.386 115.969 163.794C114.327 166.537 113.573 169.139 113.418 171.481C112.317 169.404 110.564 167.343 107.936 165.513C102.758 161.911 96.4007 161.891 92.5944 163.794C89.1122 161.351 82.8176 160.429 77.1663 163.224C74.3015 164.644 72.2586 166.425 70.8627 168.313C71.0606 165.971 70.6985 163.287 69.4807 160.332C67.0757 154.504 61.7328 151.052 57.5013 150.594C55.8928 146.653 51.0963 142.477 44.8264 141.776C41.648 141.419 38.9671 141.82 36.7693 142.655C38.1991 140.791 39.3487 138.339 39.9235 135.195C41.0539 128.991 38.4261 123.202 35.1124 120.532C35.8901 116.351 34.1125 110.247 29.2193 106.268C26.7364 104.25 24.2681 103.14 21.9688 102.652C24.1812 101.856 26.4756 100.416 28.659 98.08C32.9629 93.4686 33.8855 87.1818 32.5474 83.1456C35.465 80.0454 37.2716 73.9523 35.3056 67.9607C34.3105 64.9233 32.8324 62.6486 31.1611 60.9974C33.4508 61.5237 36.1606 61.5533 39.2617 60.7663C45.3771 59.2163 49.5554 54.4213 50.6085 50.303C54.7386 49.2745 59.5542 45.1221 61.1438 39.019C61.9501 35.9241 61.9356 33.2153 61.4238 30.9218C63.066 32.6021 65.3315 34.0893 68.3654 35.1032C74.3498 37.1022 80.4554 35.3301 83.5714 32.4331C87.6004 33.7995 93.8986 32.9112 98.5359 28.6332C100.888 26.4653 102.342 24.1814 103.149 21.9749C103.623 24.2732 104.724 26.7501 106.724 29.2415C110.675 34.1569 116.771 35.9675 120.959 35.2143C123.61 38.541 129.388 41.1967 135.605 40.1054C138.754 39.5502 141.213 38.4155 143.087 36.9959C142.242 39.188 141.826 41.8629 142.164 45.0449C142.831 51.3169 146.981 56.1306 150.913 57.7628C151.347 61.9926 154.767 67.3524 160.588 69.79C163.539 71.0265 166.22 71.3977 168.563 71.2197C166.664 72.6053 164.867 74.6331 163.433 77.4919C160.602 83.1263 161.486 89.4227 163.916 92.9182C161.994 96.713 161.974 103.067 165.549 108.263C167.36 110.899 169.418 112.661 171.486 113.772C169.142 113.912 166.534 114.651 163.781 116.278C158.351 119.489 155.694 125.263 155.844 129.512C152.173 131.666 148.719 137.001 148.917 143.307C149.019 146.504 149.792 149.101 150.932 151.153L150.937 151.143ZM131.982 160.941C132.146 159.666 132.74 158.299 133.933 157.198C136.552 154.794 145.391 152.08 149.236 157.367C151.236 160.12 150.299 163.664 147.927 164.069C147.927 164.069 149.101 161.346 146.7 159.603C144.3 157.86 138.029 160.419 140.101 166.141C142.174 171.862 152.207 173.117 156.076 165.648C156.076 165.648 159.969 168.695 166.466 166.749C168.447 160.264 165.423 156.358 165.423 156.358C172.915 152.529 171.717 142.496 166.003 140.391C160.288 138.286 157.689 144.543 159.423 146.948C161.158 149.357 163.887 148.198 163.887 148.198C163.467 150.564 159.916 151.482 157.173 149.468C151.908 145.595 154.67 136.775 157.091 134.172C158.197 132.984 159.564 132.4 160.844 132.245C160.293 131.082 160.051 129.614 160.462 128.045C161.365 124.607 167.331 117.547 173.427 119.919C176.601 121.15 177.726 124.64 175.953 126.263C175.953 126.263 175.466 123.337 172.504 123.168C169.543 122.994 165.655 128.542 170.49 132.236C175.33 135.93 184.445 131.564 183.663 123.187C183.663 123.187 188.585 123.646 193 118.499C191.159 111.971 186.503 110.32 186.503 110.32C190.734 103.053 184.3 95.255 178.354 96.5736C172.408 97.8911 173.606 104.555 176.364 105.646C179.122 106.737 180.793 104.289 180.793 104.289C181.721 106.51 179.228 109.2 175.833 108.987C169.306 108.577 166.862 99.6588 167.49 96.1632C167.776 94.5652 168.616 93.3334 169.606 92.5126C168.514 91.8319 167.514 90.7263 167.012 89.1861C165.911 85.8059 167.114 76.6416 173.519 75.3428C176.851 74.6669 179.687 76.9892 179.073 79.3163C179.073 79.3163 177.084 77.1202 174.499 78.5782C171.915 80.0357 171.64 86.801 177.711 87.2929C183.778 87.786 189.087 79.1866 183.9 72.5619C183.9 72.5619 188.285 70.2879 189.218 63.5714C184.141 59.0764 179.325 60.2012 179.325 60.2012C178.953 51.7997 169.326 48.7193 165.036 53.0406C160.747 57.3622 165.36 62.3209 168.272 61.7464C171.181 61.1719 171.268 58.2068 171.268 58.2068C173.248 59.5735 172.606 63.1852 169.635 64.8364C163.925 68.0138 157.047 61.8381 155.68 58.5549C155.057 57.0581 155.095 55.5706 155.482 54.3394C154.197 54.359 152.758 53.9677 151.502 52.9441C148.748 50.6989 144.801 42.3361 149.487 37.7829C151.926 35.4123 155.569 35.8371 156.313 38.1258C156.313 38.1258 153.449 37.3532 152.062 39.975C150.675 42.5969 154.105 48.4392 159.476 45.5711C164.848 42.7079 164.66 32.6021 156.718 29.8354C156.718 29.8354 159.182 25.5526 156.332 19.3965C149.628 18.3584 146.188 21.9073 146.188 21.9073C141.334 15.0413 131.567 17.6535 130.296 23.602C129.026 29.5554 135.59 31.2357 137.725 29.1788C139.861 27.1219 138.329 24.587 138.329 24.587C140.735 24.6691 142.15 28.0489 140.541 31.0473C137.454 36.8076 128.326 35.3301 125.408 33.3022C124.075 32.38 123.301 31.1053 122.964 29.8644C121.891 30.5742 120.471 31.0233 118.857 30.8397C115.327 30.439 107.482 25.5334 108.965 19.1696C109.733 15.8573 113.027 14.2447 114.892 15.7704C114.892 15.7704 112.066 16.6685 112.317 19.6234C112.569 22.5784 118.612 25.6396 121.582 20.3236C124.553 15.0123 118.93 6.61095 110.747 8.57609C110.747 8.57609 110.501 3.6415 104.777 0.0057373C98.5746 2.75791 97.6035 7.60076 97.6035 7.60076C89.8026 4.44784 83.0016 11.9222 85.1507 17.6148C87.3004 23.3075 93.7296 21.1782 94.4158 18.2908C95.102 15.4083 92.4399 14.0998 92.4399 14.0998C94.5075 12.8685 97.5269 14.9496 97.7972 18.339C98.3187 24.8526 89.8364 28.5415 86.2859 28.4159C84.6631 28.358 83.3251 27.7061 82.3686 26.8419C81.8514 28.02 80.9002 29.1643 79.4415 29.8789C76.2532 31.4481 67.0026 31.564 64.8053 25.4078C63.6604 22.2066 65.5585 19.0681 67.9496 19.3434C67.9496 19.3434 66.0564 21.6272 67.8675 23.9738C69.6792 26.3253 76.4174 25.6299 76.0408 19.5558C75.6642 13.4817 66.3943 9.45492 60.5735 15.529C60.5735 15.529 57.6996 11.5117 50.9128 11.5455C47.1836 17.2093 48.9855 21.8107 48.9855 21.8107C40.7205 23.3751 39.0395 33.336 43.9279 36.967C48.8164 40.5931 53.0719 35.3253 52.0914 32.5297C51.106 29.7341 48.1643 30.0721 48.1643 30.0721C49.2366 27.9186 52.9029 28.0393 54.9653 30.7432C58.9264 35.9434 53.7869 43.6253 50.734 45.4408C49.338 46.2664 47.8599 46.4402 46.5895 46.2326C46.7924 47.5025 46.6089 48.98 45.7732 50.3706C43.9376 53.4124 36.2234 58.5067 31.0452 54.5184C28.3498 52.4419 28.2532 48.7771 30.4124 47.7198C30.4124 47.7198 30.0549 50.6603 32.8469 51.6597C35.6389 52.6592 40.9331 48.4343 37.3344 43.5287C33.7309 38.6231 23.7561 40.2454 22.1427 48.4972C22.1427 48.4972 17.549 46.672 11.8636 50.3657C11.7911 57.1448 15.7955 60.0419 15.7955 60.0419C9.68503 65.8261 13.6653 75.1159 19.7372 75.5269C25.8138 75.9373 26.5432 69.2064 24.2004 67.3808C21.8626 65.5606 19.5633 67.4387 19.5633 67.4387C19.3024 65.0488 22.447 63.1653 25.6448 64.3294C31.7891 66.56 31.62 75.8063 30.0356 78.9838C29.311 80.4322 28.1614 81.3779 26.978 81.8903C27.8329 82.8511 28.4802 84.1933 28.5285 85.8107C28.6299 89.3593 24.896 97.8193 18.3798 97.2592C14.9888 96.9689 12.9262 93.9417 14.1676 91.8796C14.1676 91.8796 15.4574 94.5501 18.3509 93.879C21.2394 93.2079 23.4083 86.7962 17.7277 84.6133C12.0423 82.431 4.52612 89.1903 7.63691 97.0027C7.63691 97.0027 2.78716 97.949 0 104.13C3.6035 109.876 8.54024 110.145 8.54024 110.145C6.53074 118.311 14.897 123.979 20.2298 121.039C25.5627 118.103 22.534 112.043 19.5826 111.773C16.6263 111.503 15.7134 114.323 15.7134 114.323C14.2015 112.454 15.8293 109.171 19.1479 108.417C25.524 106.974 30.3834 114.839 30.765 118.373C30.9389 119.986 30.4849 121.401 29.7651 122.473C31.0065 122.816 32.2721 123.598 33.1899 124.935C35.1994 127.866 36.6292 137.001 30.8471 140.053C27.8378 141.642 24.4613 140.207 24.3937 137.803C24.3937 137.803 26.9248 139.348 28.9922 137.224C31.0597 135.099 29.4173 128.528 23.4565 129.764C17.4958 131 14.8246 140.748 21.6693 145.639C21.6693 145.639 18.0996 149.058 19.0995 155.764C25.239 158.647 29.5381 156.213 29.5381 156.213C32.2624 164.17 42.3677 164.412 45.266 159.062C48.1643 153.707 42.3387 150.25 39.711 151.617C37.0784 152.988 37.8368 155.856 37.8368 155.856C35.552 155.103 35.1462 151.457 37.5325 149.034C42.1166 144.374 50.4587 148.367 52.6903 151.129C53.7096 152.389 54.0911 153.828 54.0671 155.118C55.2986 154.736 56.7868 154.707 58.2792 155.34C61.5542 156.72 67.6985 163.63 64.4812 169.323C62.8101 172.282 59.1969 172.905 57.8395 170.916C57.8395 170.916 60.8052 170.848 61.3949 167.946C61.9839 165.039 57.0475 160.404 52.7048 164.663C48.3575 168.926 51.3862 178.564 59.7862 178.984C59.7862 178.984 58.6315 183.788 63.1004 188.887C69.8241 187.994 72.1228 183.619 72.1228 183.619C78.7167 188.839 87.3535 183.586 86.8949 177.516C86.4356 171.447 79.6636 171.683 78.1953 174.257C76.7215 176.831 78.9099 178.834 78.9099 178.834C76.5815 179.433 74.2683 176.589 74.9635 173.258C76.3015 166.86 85.4748 165.711 88.8508 166.831C90.3922 167.343 91.4882 168.348 92.1647 169.443C92.9957 168.458 94.2323 167.628 95.8262 167.352C99.3283 166.744 108.236 169.24 108.607 175.764C108.801 179.158 106.095 181.635 103.884 180.694C103.884 180.694 106.342 179.037 105.27 176.27C104.197 173.509 97.5359 172.273 96.1835 178.207C94.8316 184.141 102.594 190.615 109.887 186.429C109.887 186.429 111.515 191.094 118.032 192.972C123.205 188.587 122.775 183.667 122.775 183.667C131.146 184.493 135.567 175.406 131.9 170.549C128.233 165.692 122.664 169.549 122.819 172.509C122.973 175.469 125.896 175.976 125.896 175.976C124.258 177.738 120.775 176.594 119.563 173.417C117.225 167.314 124.326 161.384 127.77 160.506C129.34 160.105 130.809 160.356 131.972 160.911L131.982 160.941Z" fill="#D4D4D4"/>
</svg>
