<svg width="235" height="232" viewBox="0 0 235 232" fill="none" xmlns="http://www.w3.org/2000/svg">
<path d="M43.764 202.797C51.5509 201.685 54.3841 194.931 54.3841 194.931C54.3841 194.931 52.5688 206.463 41.6037 208.175C40.7159 208.316 39.8507 208.417 39.0081 208.484C38.9176 207.648 38.861 206.783 38.8385 205.89C38.5274 194.875 49.6112 190.99 49.6112 190.99C49.6112 190.99 43.4416 194.993 43.7696 202.797H43.764Z" fill="#D4D4D4"/>
<path d="M8.49966 150.731C15.6533 153.976 21.7154 149.815 21.7154 149.815C21.7154 149.815 13.9115 158.54 3.74946 154.099C2.92948 153.74 2.14343 153.364 1.39697 152.965C1.77586 152.213 2.19999 151.455 2.6637 150.691C8.39787 141.259 19.838 143.938 19.838 143.938C19.838 143.938 12.4638 143.994 8.49405 150.736L8.49966 150.731Z" fill="#D4D4D4"/>
<path d="M7.1875 88.0088C11.4345 94.577 18.8086 94.3301 18.8086 94.3301C18.8086 94.3301 7.49287 97.4795 1.36286 88.2894C0.865216 87.5481 0.412816 86.8068 0 86.0714C0.729497 85.645 1.49858 85.235 2.30159 84.8423C12.2657 79.9858 20.4259 88.3792 20.4259 88.3792C20.4259 88.3792 14.1941 84.4713 7.18189 88.0088H7.1875Z" fill="#D4D4D4"/>
<path d="M40.2408 34.5387C40.2408 42.3481 46.5744 46.0927 46.5744 46.0927C46.5744 46.0927 35.3378 42.6681 35.1908 31.6473C35.1795 30.7547 35.2021 29.8901 35.253 29.0536C36.1013 29.0873 36.9665 29.1547 37.86 29.2557C48.8873 30.5132 51.1832 41.9606 51.1832 41.9606C51.1832 41.9606 48.0673 35.3247 40.2464 34.5387H40.2408Z" fill="#D4D4D4"/>
<path d="M97.1649 7.29286C92.9125 13.8615 96.1979 20.4133 96.1979 20.4133C96.1979 20.4133 88.6086 11.5035 94.4842 2.15024C94.9595 1.39233 95.4513 0.679322 95.949 0C96.6448 0.482823 97.3405 1.00495 98.0356 1.56637C106.626 8.54482 102.328 19.4027 102.328 19.4027C102.328 19.4027 103.318 12.1492 97.1649 7.28724V7.29286Z" fill="#D4D4D4"/>
<path d="M159.884 14.9282C152.73 18.1676 151.927 25.4436 151.927 25.4436C151.927 25.4436 150.395 13.8727 160.433 9.16242C161.247 8.78061 162.044 8.43813 162.836 8.14062C163.158 8.92094 163.458 9.72945 163.735 10.5772C167.162 21.0589 157.628 27.8858 157.628 27.8858C157.628 27.8858 162.412 22.3165 159.884 14.9226V14.9282Z" fill="#D4D4D4"/>
<path d="M208.496 55.0194C200.714 53.9077 196.077 59.5949 196.077 59.5949C196.077 59.5949 201.093 49.0402 212.098 50.4606C212.986 50.5785 213.851 50.7189 214.676 50.8929C214.524 51.7182 214.331 52.566 214.105 53.4249C211.278 64.0807 199.543 64.7096 199.543 64.7096C199.543 64.7096 206.601 62.593 208.501 55.0138L208.496 55.0194Z" fill="#D4D4D4"/>
<path d="M227.558 114.833C221.615 109.719 214.614 112.015 214.614 112.015C214.614 112.015 224.578 105.828 233.066 112.93C233.751 113.502 234.401 114.087 235.001 114.676C234.424 115.288 233.802 115.9 233.14 116.501C224.963 123.951 214.744 118.179 214.744 118.179C214.744 118.179 221.836 120.189 227.558 114.833Z" fill="#D4D4D4"/>
<path d="M211.017 175.383C208.807 167.893 201.664 166.068 201.664 166.068C201.664 166.068 213.416 166.214 216.684 176.741C216.95 177.595 217.176 178.431 217.362 179.251C216.543 179.459 215.689 179.632 214.801 179.789C203.864 181.665 198.413 171.324 198.413 171.324C198.413 171.324 203.282 176.82 211.012 175.383H211.017Z" fill="#D4D4D4"/>
<path d="M164.131 217.444C166.348 209.955 161.337 204.588 161.337 204.588C161.337 204.588 171.149 211.016 168.163 221.633C167.92 222.492 167.654 223.317 167.366 224.108C166.562 223.839 165.749 223.536 164.923 223.188C154.698 218.893 155.745 207.271 155.745 207.271C155.745 207.271 156.853 214.508 164.137 217.45L164.131 217.444Z" fill="#D4D4D4"/>
<path d="M55.3235 188.98C55.4139 189.261 55.4875 189.541 55.5496 189.823C56.1039 192.652 55.5836 195.437 54.6392 197.822C54.1755 199.024 53.5535 200.119 52.8974 201.107C52.2132 202.078 51.4667 202.932 50.709 203.661C49.9342 204.369 49.1708 204.958 48.4356 205.407C47.7288 205.89 46.9653 206.193 46.4055 206.491C45.348 206.879 44.7429 207.097 44.7429 207.097C44.0473 207.35 43.2726 206.996 43.0125 206.306C42.758 205.615 43.1142 204.846 43.8098 204.588C43.8155 204.588 43.8381 204.577 43.8494 204.577C43.8494 204.577 44.4545 204.369 45.5176 204.01C45.9418 203.774 46.479 203.594 47.0728 203.207C47.6891 202.853 48.3282 202.381 48.9898 201.809C49.6345 201.219 50.2792 200.518 50.8843 199.703C51.4611 198.873 52.0153 197.952 52.4394 196.93C53.1915 195.178 53.6496 193.118 53.5082 191.153C51.5346 191.378 49.5836 192.197 47.9832 193.253C47.0445 193.853 46.2358 194.566 45.5176 195.28C44.8278 196.02 44.2509 196.778 43.7815 197.514C43.3348 198.266 42.9842 198.979 42.7467 199.642C42.4753 200.293 42.3961 200.848 42.2377 201.303C42.0737 202.404 41.9833 203.033 41.9833 203.033C41.9833 203.044 41.9833 203.06 41.9776 203.072C41.8532 203.802 41.1576 204.29 40.4281 204.167C39.6929 204.043 39.201 203.353 39.3254 202.623C39.3254 202.623 39.4329 201.988 39.6251 200.888C39.8174 200.287 39.9813 199.49 40.3263 198.71C40.6374 197.912 41.0785 197.059 41.6383 196.172C42.2208 195.302 42.9276 194.415 43.7646 193.567C44.6242 192.742 45.5912 191.939 46.6996 191.266C48.8937 189.906 51.5515 188.891 54.4582 188.913C54.7466 188.924 55.0407 188.947 55.3348 188.98H55.3235Z" fill="#D4D4D4"/>
<path d="M25.7477 145.312C25.6686 145.594 25.5837 145.868 25.4819 146.144C24.4075 148.822 22.4508 150.882 20.3585 152.387C19.3123 153.15 18.1983 153.734 17.1068 154.217C15.9985 154.666 14.9071 154.986 13.8722 155.188C12.8317 155.368 11.8703 155.452 11.0108 155.435C10.1512 155.458 9.34813 155.306 8.71482 155.256C7.6121 155.014 6.98434 154.874 6.98434 154.874C6.26052 154.716 5.80247 154.004 5.96081 153.279C6.12481 152.561 6.83733 152.106 7.56682 152.263C7.5725 152.263 7.59514 152.269 7.60643 152.275C7.60643 152.275 8.22845 152.426 9.3142 152.696C9.80058 152.724 10.3491 152.858 11.056 152.858C11.7685 152.892 12.5659 152.842 13.4311 152.712C14.2963 152.561 15.2181 152.32 16.1682 151.96C17.1068 151.573 18.0739 151.096 18.99 150.461C20.579 149.389 22.0833 147.901 23.0333 146.172C21.252 145.301 19.1596 144.942 17.2425 144.976C16.1229 144.976 15.0598 145.144 14.0644 145.358C13.0805 145.605 12.1813 145.936 11.3896 146.307C10.6036 146.699 9.91933 147.109 9.35949 147.542C8.77701 147.946 8.40945 148.367 8.02487 148.67C7.28977 149.512 6.86558 149.989 6.86558 149.989C6.85997 149.995 6.84301 150.012 6.83733 150.018C6.33404 150.562 5.48579 150.601 4.93725 150.102C4.38872 149.602 4.34913 148.76 4.85243 148.216C4.85243 148.216 5.28786 147.744 6.05129 146.913C6.54328 146.509 7.11445 145.925 7.82697 145.453C8.52253 144.948 9.35949 144.465 10.3152 144.021C11.2765 143.6 12.3567 143.236 13.5216 142.972C14.6921 142.741 15.9476 142.584 17.2425 142.607C19.8269 142.64 22.6149 143.213 25.0521 144.791C25.2896 144.953 25.5272 145.128 25.7534 145.318L25.7477 145.312Z" fill="#D4D4D4"/>
<path d="M24.6498 92.7075C24.4292 92.9042 24.203 93.0897 23.9712 93.2633C21.6074 94.9367 18.8421 95.6272 16.2634 95.7671C14.9684 95.8457 13.713 95.7394 12.531 95.5599C11.3548 95.3466 10.2634 95.0265 9.28508 94.6443C8.3124 94.2403 7.45848 93.7914 6.74034 93.3141C6.00517 92.8706 5.41139 92.3147 4.90244 91.9273C4.10508 91.1298 3.65268 90.675 3.65268 90.675C3.13241 90.1529 3.13241 89.3053 3.65833 88.7891C4.18425 88.2722 5.03816 88.2722 5.55842 88.7944C5.56408 88.8003 5.58104 88.8168 5.5867 88.8228C5.5867 88.8228 6.02778 89.2829 6.79685 90.0915C7.19272 90.378 7.57723 90.782 8.17668 91.1635C8.75349 91.5734 9.45473 91.9556 10.2578 92.3147C11.0664 92.6514 11.9769 92.9432 12.9721 93.1511C13.9731 93.3254 15.0475 93.4488 16.1616 93.4039C18.0786 93.359 20.1597 92.9155 21.9014 91.9669C20.8778 90.277 19.3115 88.8564 17.6828 87.8511C16.7441 87.2504 15.7544 86.8186 14.8044 86.4701C13.8373 86.15 12.9043 85.948 12.0334 85.8305C11.1569 85.7407 10.3595 85.7182 9.65263 85.7796C8.94578 85.8021 8.4029 85.9651 7.91653 86.01C6.84213 86.3189 6.22571 86.4985 6.22571 86.4985C6.2144 86.4985 6.19743 86.5038 6.18613 86.5097C5.46794 86.7005 4.73279 86.2741 4.54052 85.5605C4.34825 84.8476 4.77803 84.1181 5.49622 83.9267C5.49622 83.9267 6.11827 83.7643 7.20968 83.4725C7.84306 83.394 8.64041 83.2085 9.49994 83.1973C10.3595 83.1464 11.3265 83.1861 12.3727 83.326C13.4132 83.489 14.5159 83.7584 15.6413 84.163C16.7554 84.5954 17.892 85.134 18.9665 85.8529C21.121 87.2675 23.1568 89.2492 24.3444 91.8764C24.4575 92.1405 24.5593 92.4157 24.6441 92.6963L24.6498 92.7075Z" fill="#D4D4D4"/>
<path d="M52.3655 47.8613C52.0771 47.9061 51.7831 47.9398 51.4947 47.9623C48.5936 48.1027 45.8962 47.1988 43.6455 45.93C42.5145 45.3011 41.5135 44.5376 40.6201 43.7516C39.7435 42.9375 39.0027 42.0842 38.3863 41.2364C37.7869 40.3719 37.3118 39.5409 36.9725 38.7549C36.5937 37.9915 36.4014 37.1998 36.1809 36.6048C35.9434 35.51 35.8076 34.8811 35.8076 34.8811C35.655 34.1625 36.113 33.4496 36.8425 33.2979C37.572 33.1464 38.2845 33.6011 38.4372 34.3253C38.4372 34.3309 38.4429 34.3534 38.4429 34.3647C38.4429 34.3647 38.5616 34.9878 38.7709 36.0826C38.9462 36.5317 39.0479 37.082 39.3477 37.7219C39.6135 38.3788 39.9924 39.075 40.4674 39.8048C40.965 40.5234 41.5701 41.2589 42.294 41.9663C43.0404 42.6513 43.8773 43.3306 44.8387 43.892C46.4787 44.8801 48.4692 45.6212 50.4485 45.7615C50.5051 43.7909 49.9678 41.753 49.1365 40.035C48.6728 39.0245 48.079 38.1318 47.4683 37.3234C46.8293 36.5374 46.1563 35.8636 45.4891 35.3022C44.8048 34.7576 44.1432 34.3085 43.5155 33.9829C42.9047 33.6236 42.3618 33.4664 41.9264 33.2474C40.8519 32.933 40.2355 32.7534 40.2355 32.7534C40.2242 32.7534 40.2072 32.7422 40.1959 32.7422C39.489 32.5176 39.0988 31.7653 39.3251 31.0635C39.5513 30.3617 40.309 29.9743 41.0159 30.1989C41.0159 30.1989 41.6323 30.3954 42.7067 30.7379C43.2836 31.0129 44.0527 31.2881 44.7821 31.7372C45.5343 32.1526 46.3259 32.7084 47.129 33.3878C47.915 34.0839 48.6954 34.9036 49.4249 35.8468C50.1261 36.8068 50.7878 37.8736 51.3024 39.0581C52.3429 41.4049 52.9762 44.1671 52.5465 47.0135C52.4956 47.2998 52.4334 47.5805 52.3542 47.8613H52.3655Z" fill="#D4D4D4"/>
<path d="M100.11 25.017C99.8391 24.8991 99.579 24.7756 99.3242 24.6353C96.8078 23.198 95.0321 20.986 93.8281 18.7122C93.2168 17.5781 92.793 16.3992 92.4709 15.2539C92.1765 14.103 92.018 12.9801 91.9619 11.9415C91.9276 10.8972 91.9844 9.93721 92.1197 9.0895C92.222 8.24172 92.4821 7.47255 92.6234 6.85502C93.0247 5.80515 93.2511 5.21004 93.2511 5.21004C93.5112 4.51949 94.2915 4.17141 94.9872 4.42967C95.6823 4.69353 96.0335 5.46268 95.7734 6.15323C95.7734 6.15884 95.7615 6.1813 95.7615 6.18692C95.7615 6.18692 95.5246 6.7764 95.1001 7.80941C95.0037 8.2866 94.7892 8.80314 94.6928 9.4993C94.5575 10.1898 94.5007 10.9814 94.5007 11.8573C94.5291 12.7275 94.642 13.6707 94.8625 14.6588C95.1173 15.6356 95.4506 16.6518 95.9543 17.6455C96.7966 19.3579 98.0633 21.0478 99.6522 22.2323C100.772 20.6098 101.428 18.5999 101.672 16.708C101.83 15.6076 101.818 14.5353 101.739 13.5303C101.632 12.5254 101.428 11.599 101.174 10.7625C100.897 9.93722 100.58 9.20739 100.229 8.58979C99.9123 7.96104 99.5394 7.53995 99.2964 7.11886C98.5611 6.27675 98.1485 5.79392 98.1485 5.79392C98.1426 5.78831 98.1313 5.77146 98.1254 5.76585C97.6561 5.1932 97.7353 4.35668 98.3122 3.88509C98.8892 3.41911 99.7315 3.49771 100.207 4.07035C100.207 4.07035 100.614 4.56441 101.332 5.429C101.666 5.96796 102.163 6.61362 102.536 7.38278C102.944 8.14065 103.305 9.02771 103.611 10.027C103.893 11.032 104.109 12.1436 104.199 13.3282C104.261 14.5128 104.245 15.7647 104.029 17.0336C103.628 19.5656 102.661 22.2267 100.744 24.3938C100.546 24.6071 100.337 24.8093 100.122 25.0058L100.11 25.017Z" fill="#D4D4D4"/>
<path d="M152.714 31.4172C152.55 31.1758 152.397 30.9288 152.255 30.6762C150.921 28.116 150.633 25.2977 150.859 22.7433C150.966 21.4576 151.249 20.2393 151.599 19.1052C151.978 17.9768 152.459 16.955 152.974 16.0455C153.517 15.1472 154.082 14.3724 154.659 13.7324C155.202 13.0756 155.846 12.5703 156.299 12.1267C157.204 11.4586 157.724 11.0769 157.724 11.0769C158.318 10.639 159.16 10.7625 159.607 11.352C160.048 11.9471 159.924 12.778 159.33 13.2215C159.325 13.2215 159.307 13.2384 159.296 13.244C159.296 13.244 158.776 13.6089 157.86 14.2545C157.52 14.6026 157.056 14.9226 156.599 15.456C156.107 15.9669 155.626 16.6013 155.157 17.3367C154.704 18.0835 154.286 18.9368 153.935 19.8856C153.619 20.8456 153.347 21.8786 153.228 22.9847C153.002 24.8766 153.149 26.982 153.844 28.829C155.671 28.0655 157.317 26.7293 158.55 25.2696C159.279 24.4331 159.856 23.5236 160.337 22.6366C160.789 21.7327 161.128 20.8456 161.366 20.0091C161.581 19.1614 161.716 18.381 161.756 17.6792C161.83 16.9774 161.75 16.4272 161.773 15.9388C161.614 14.8384 161.524 14.2097 161.524 14.2097C161.524 14.1984 161.524 14.1815 161.524 14.1703C161.44 13.4349 161.965 12.7724 162.706 12.6882C163.447 12.6039 164.114 13.1261 164.199 13.8615C164.199 13.8615 164.273 14.4959 164.408 15.6132C164.397 16.2475 164.465 17.0561 164.357 17.9038C164.289 18.7572 164.108 19.7003 163.82 20.7053C163.509 21.7046 163.085 22.7489 162.52 23.7987C161.931 24.8317 161.23 25.8703 160.359 26.8304C158.64 28.7449 156.378 30.4628 153.584 31.26C153.302 31.333 153.019 31.3948 152.725 31.4396L152.714 31.4172Z" fill="#D4D4D4"/>
<path d="M193.481 65.0407C193.475 64.7488 193.481 64.4568 193.503 64.1705C193.774 61.3016 195.064 58.7752 196.647 56.7485C197.433 55.7267 198.338 54.8509 199.249 54.0874C200.182 53.3462 201.143 52.7343 202.076 52.2515C203.021 51.7855 203.92 51.4375 204.751 51.2129C205.565 50.949 206.385 50.8704 207.008 50.7412C208.133 50.6683 208.777 50.6233 208.777 50.6233C209.518 50.5729 210.157 51.1287 210.208 51.8641C210.259 52.5996 209.699 53.234 208.958 53.2845C208.953 53.2845 208.93 53.2845 208.919 53.2845C208.919 53.2845 208.28 53.3126 207.16 53.3631C206.685 53.4754 206.12 53.4923 205.441 53.6943C204.751 53.8628 203.999 54.1322 203.201 54.5028C202.415 54.8902 201.595 55.3842 200.787 55.9906C199.995 56.625 199.203 57.3492 198.508 58.2194C197.286 59.6903 196.263 61.5374 195.845 63.4631C197.801 63.7999 199.91 63.5585 201.743 62.9915C202.811 62.6771 203.79 62.2224 204.683 61.7339C205.56 61.2174 206.323 60.6504 206.985 60.0777C207.63 59.4826 208.167 58.8931 208.579 58.3261C209.026 57.7759 209.258 57.265 209.541 56.872C210.011 55.8615 210.276 55.2831 210.276 55.2831C210.276 55.2719 210.287 55.2551 210.293 55.2495C210.621 54.587 211.424 54.3119 212.091 54.6376C212.759 54.9632 213.036 55.7604 212.708 56.4228C212.708 56.4228 212.425 57.0012 211.928 58.006C211.571 58.5338 211.192 59.2524 210.638 59.9037C210.112 60.583 209.45 61.2791 208.659 61.9753C207.856 62.649 206.923 63.3003 205.882 63.8785C204.825 64.4287 203.666 64.9284 202.415 65.2652C199.927 65.9558 197.083 66.1862 194.306 65.3551C194.029 65.2652 193.758 65.1642 193.486 65.0463L193.481 65.0407Z" fill="#D4D4D4"/>
<path d="M209.468 115.209C209.62 114.963 209.785 114.721 209.96 114.491C211.753 112.222 214.213 110.791 216.644 109.932C217.866 109.494 219.098 109.241 220.286 109.09C221.479 108.967 222.616 108.972 223.662 109.062C224.708 109.18 225.658 109.371 226.478 109.624C227.309 109.842 228.039 110.213 228.633 110.437C229.622 110.976 230.188 111.285 230.188 111.285C230.838 111.639 231.076 112.453 230.714 113.098C230.352 113.744 229.537 113.98 228.887 113.621C228.882 113.621 228.859 113.609 228.853 113.604C228.853 113.604 228.299 113.284 227.332 112.722C226.874 112.56 226.388 112.273 225.703 112.082C225.031 111.852 224.25 111.678 223.379 111.56C222.508 111.465 221.553 111.437 220.535 111.515C219.528 111.628 218.459 111.813 217.402 112.166C215.575 112.75 213.709 113.755 212.307 115.147C213.766 116.484 215.672 117.41 217.526 117.915C218.6 118.224 219.669 118.37 220.682 118.437C221.7 118.471 222.65 118.41 223.52 118.275C224.386 118.118 225.155 117.915 225.817 117.657C226.49 117.433 226.965 117.13 227.417 116.95C228.362 116.349 228.898 116.007 228.898 116.007C228.904 116.001 228.927 115.99 228.933 115.984C229.566 115.602 230.397 115.805 230.782 116.433C231.166 117.068 230.962 117.887 230.329 118.269C230.329 118.269 229.775 118.6 228.814 119.185C228.232 119.437 227.513 119.835 226.699 120.088C225.89 120.38 224.951 120.605 223.905 120.768C222.859 120.902 221.722 120.953 220.529 120.88C219.342 120.773 218.092 120.577 216.853 120.189C214.382 119.431 211.865 118.101 209.983 115.911C209.802 115.687 209.626 115.456 209.462 115.209H209.468Z" fill="#D4D4D4"/>
<path d="M195.595 165.99C195.861 165.861 196.127 165.748 196.404 165.647C199.147 164.705 201.996 164.817 204.513 165.4C205.78 165.687 206.956 166.142 208.036 166.647C209.105 167.18 210.061 167.798 210.892 168.438C211.712 169.1 212.402 169.768 212.956 170.425C213.533 171.054 213.946 171.756 214.325 172.267C214.862 173.255 215.167 173.816 215.167 173.816C215.518 174.462 215.28 175.276 214.624 175.624C213.968 175.972 213.154 175.736 212.798 175.085C212.798 175.08 212.781 175.057 212.781 175.051C212.781 175.051 212.487 174.484 211.978 173.496C211.678 173.114 211.423 172.615 210.96 172.081C210.519 171.526 209.959 170.964 209.292 170.392C208.607 169.842 207.821 169.308 206.922 168.831C206.012 168.381 205.016 167.966 203.93 167.697C202.076 167.202 199.961 167.051 198.021 167.467C198.524 169.376 199.621 171.178 200.905 172.598C201.641 173.435 202.46 174.13 203.275 174.731C204.111 175.304 204.948 175.764 205.752 176.118C206.566 176.449 207.323 176.691 208.025 176.831C208.715 177.005 209.275 177.005 209.755 177.095C210.875 177.095 211.52 177.095 211.52 177.095C211.531 177.095 211.548 177.095 211.559 177.095C212.3 177.112 212.888 177.729 212.871 178.465C212.855 179.2 212.232 179.784 211.491 179.767C211.491 179.767 210.846 179.751 209.716 179.722C209.088 179.621 208.268 179.571 207.442 179.346C206.6 179.155 205.69 178.847 204.723 178.42C203.772 177.971 202.788 177.404 201.821 176.702C200.877 175.972 199.938 175.136 199.107 174.148C197.444 172.188 196.047 169.718 195.657 166.86C195.624 166.574 195.606 166.282 195.6 165.99H195.595Z" fill="#D4D4D4"/>
<path d="M156.271 201.264C156.565 201.298 156.853 201.348 157.136 201.41C159.958 202.089 162.293 203.712 164.091 205.554C165.002 206.474 165.743 207.485 166.376 208.49C166.981 209.512 167.457 210.544 167.807 211.527C168.135 212.521 168.356 213.459 168.463 214.306C168.61 215.148 168.57 215.956 168.61 216.591C168.525 217.708 168.474 218.348 168.474 218.348C168.418 219.084 167.773 219.634 167.032 219.578C166.291 219.522 165.737 218.881 165.794 218.146C165.794 218.141 165.794 218.118 165.794 218.107C165.794 218.107 165.856 217.473 165.969 216.366C165.93 215.884 165.986 215.328 165.879 214.632C165.811 213.93 165.647 213.155 165.392 212.319C165.115 211.487 164.742 210.617 164.25 209.736C163.73 208.871 163.119 207.984 162.355 207.176C161.061 205.767 159.364 204.498 157.503 203.813C156.887 205.688 156.831 207.793 157.136 209.674C157.294 210.769 157.611 211.796 157.973 212.74C158.363 213.672 158.816 214.508 159.302 215.238C159.805 215.951 160.314 216.568 160.823 217.057C161.304 217.574 161.784 217.871 162.135 218.208C163.079 218.814 163.617 219.157 163.617 219.157C163.622 219.157 163.645 219.174 163.65 219.179C164.267 219.594 164.425 220.425 164.007 221.037C163.588 221.649 162.751 221.806 162.135 221.391C162.135 221.391 161.603 221.032 160.671 220.403C160.195 219.982 159.534 219.499 158.962 218.865C158.358 218.253 157.758 217.5 157.181 216.624C156.622 215.738 156.107 214.733 155.677 213.621C155.281 212.504 154.942 211.297 154.784 210.017C154.45 207.473 154.625 204.649 155.847 202.033C155.977 201.775 156.118 201.522 156.271 201.27V201.264Z" fill="#D4D4D4"/>
<path d="M103.978 209.837C104.205 210.022 104.419 210.219 104.629 210.421C106.636 212.504 107.711 215.125 108.22 217.641C108.486 218.904 108.559 220.15 108.542 221.34C108.497 222.531 108.333 223.648 108.09 224.664C107.824 225.675 107.501 226.579 107.129 227.353C106.795 228.139 106.32 228.802 106.008 229.352C105.33 230.245 104.94 230.755 104.94 230.755C104.493 231.345 103.65 231.463 103.057 231.02C102.463 230.576 102.344 229.74 102.791 229.15C102.791 229.144 102.808 229.128 102.813 229.122C102.813 229.122 103.209 228.622 103.905 227.752C104.131 227.326 104.487 226.887 104.776 226.242C105.098 225.613 105.381 224.872 105.629 224.036C105.85 223.193 106.008 222.256 106.076 221.251C106.111 220.246 106.076 219.174 105.873 218.079C105.55 216.198 104.815 214.222 103.628 212.644C102.09 213.89 100.89 215.631 100.127 217.377C99.6633 218.388 99.3696 219.421 99.1603 220.403C98.9794 221.396 98.9062 222.34 98.9174 223.216C98.951 224.086 99.0474 224.878 99.2058 225.562C99.3299 226.259 99.5676 226.764 99.6864 227.236C100.15 228.252 100.416 228.83 100.416 228.83C100.416 228.841 100.427 228.858 100.433 228.864C100.721 229.543 100.405 230.323 99.7201 230.616C99.0362 230.901 98.2441 230.587 97.9556 229.908C97.9556 229.908 97.7014 229.318 97.2605 228.285C97.0908 227.673 96.7964 226.916 96.6611 226.073C96.4855 225.237 96.3892 224.282 96.3779 223.233C96.3892 222.189 96.5027 221.066 96.7456 219.898C97.0169 218.741 97.3958 217.545 97.9615 216.389C99.0699 214.07 100.749 211.785 103.203 210.247C103.452 210.101 103.712 209.961 103.978 209.831V209.837Z" fill="#D4D4D4"/>
<path d="M28.2643 144.527C26.8335 145.419 25.4254 146.396 24.04 147.463L24.3736 145.751L23.1069 144.538C24.8543 144.617 26.5791 144.611 28.2643 144.527Z" fill="#D4D4D4"/>
<path d="M27.1957 93.3927C25.5105 93.3755 23.7857 93.4428 22.0439 93.5947L23.2597 92.3312L22.8526 90.6361C24.2777 91.6407 25.731 92.5616 27.1957 93.3927Z" fill="#D4D4D4"/>
<path d="M54.1347 49.8038C52.721 48.883 51.2394 48.0184 49.6899 47.21L51.3977 46.8001L51.9802 45.1552C52.6305 46.7665 53.3544 48.3216 54.1291 49.8038H54.1347Z" fill="#D4D4D4"/>
<path d="M100.541 27.5995C99.8567 26.0668 99.0758 24.5397 98.2163 23.0295L99.8791 23.6022L101.265 22.5299C100.937 24.2366 100.694 25.9265 100.541 27.5995Z" fill="#D4D4D4"/>
<path d="M151.668 33.8201C151.923 32.1638 152.104 30.4627 152.2 28.728L153.285 30.0978L155.039 29.9406C153.834 31.1982 152.709 32.4951 151.668 33.8145V33.8201Z" fill="#D4D4D4"/>
<path d="M191.293 66.5004C192.412 65.2428 193.487 63.9123 194.51 62.5031L194.674 64.2379L196.229 65.0463C194.532 65.4561 192.881 65.9446 191.287 66.5004H191.293Z" fill="#D4D4D4"/>
<path d="M206.833 115.26C208.456 114.805 210.09 114.261 211.719 113.626L210.916 115.176L211.786 116.691C210.136 116.124 208.479 115.647 206.839 115.26H206.833Z" fill="#D4D4D4"/>
<path d="M193.351 164.62C194.968 165.109 196.636 165.524 198.35 165.866L196.829 166.736L196.733 168.477C195.647 167.113 194.516 165.822 193.351 164.615V164.62Z" fill="#D4D4D4"/>
<path d="M155.128 198.906C156.22 200.18 157.401 201.433 158.657 202.639L156.904 202.555L155.875 203.97C155.705 202.241 155.456 200.551 155.128 198.906Z" fill="#D4D4D4"/>
<path d="M104.301 207.238C104.527 208.9 104.838 210.578 105.234 212.274L103.803 211.263L102.169 211.903C102.966 210.359 103.679 208.798 104.301 207.244V207.238Z" fill="#D4D4D4"/>
<path d="M57.0075 186.965C56.2894 188.481 55.639 190.064 55.0509 191.703L54.4006 190.081L52.6758 189.738C54.1913 188.868 55.6333 187.942 57.0075 186.965Z" fill="#D4D4D4"/>
<path d="M54.4756 157.844C55.0298 155.873 57.0995 154.172 59.469 154.509C58.8922 156.816 56.5227 158.074 54.4756 157.844Z" fill="#D4D4D4"/>
<path d="M41.9883 118.668C43.5264 117.309 46.1956 116.984 48.0052 118.544C46.2634 120.178 43.583 119.965 41.9883 118.668Z" fill="#D4D4D4"/>
<path d="M52.8237 79.0088C54.8596 78.6946 57.2799 79.8512 57.9529 82.1358C55.6004 82.5741 53.4571 80.9568 52.8237 79.0088Z" fill="#D4D4D4"/>
<path d="M83.5306 51.4599C85.4132 52.2852 86.8212 54.5589 86.1426 56.8439C83.926 55.9456 83.0045 53.4417 83.5306 51.4599Z" fill="#D4D4D4"/>
<path d="M124.372 44.7678C125.508 46.4746 125.452 49.1413 123.636 50.702C122.257 48.7595 122.85 46.1545 124.372 44.7678Z" fill="#D4D4D4"/>
<path d="M162.367 61.0547C162.394 63.0982 160.891 65.3159 158.521 65.6527C158.419 63.2779 160.336 61.4027 162.367 61.0547Z" fill="#D4D4D4"/>
<path d="M185.462 95.1552C184.371 96.89 181.9 97.9455 179.723 96.9573C180.933 94.9031 183.563 94.3585 185.462 95.1552Z" fill="#D4D4D4"/>
<path d="M186.321 136.235C184.461 137.111 181.808 136.672 180.513 134.668C182.651 133.59 185.162 134.545 186.321 136.235Z" fill="#D4D4D4"/>
<path d="M164.675 171.256C162.633 170.992 160.637 169.201 160.637 166.821C163.018 167.063 164.613 169.213 164.675 171.256Z" fill="#D4D4D4"/>
<path d="M127.391 189.098C125.819 187.779 125.118 185.202 126.413 183.203C128.285 184.686 128.454 187.346 127.391 189.098Z" fill="#D4D4D4"/>
<path d="M86.3125 184.096C85.7078 182.142 86.5217 179.599 88.6995 178.611C89.4685 180.862 88.1621 183.192 86.3125 184.096Z" fill="#D4D4D4"/>
<path d="M76.0768 164.182C84.0107 162.588 89.6316 164.755 95.1171 163.862C98.2276 168.432 103.668 171.015 107.937 177.836C113.745 172.238 119.648 171.043 123.777 167.348C128.883 169.527 134.861 168.775 142.173 172.222C144.01 164.396 148.325 160.219 149.79 154.896C155.269 153.987 159.895 150.147 167.92 149.125C165.205 141.557 166.557 135.724 164.894 130.463C169.011 126.758 170.81 121.043 177.001 115.877C170.594 110.965 168.559 105.334 164.289 101.803C165.731 96.4748 164.137 90.7034 166.534 83.0289C158.47 82.3385 153.692 78.6887 148.178 78.0094C146.493 72.7549 142.008 68.7573 139.842 61.0154C132.683 64.7601 126.672 64.2604 121.668 66.6463C117.387 63.132 111.437 62.1775 105.398 56.8215C101.417 63.8169 96.0895 66.6185 93.1717 71.3119C87.6578 70.6492 82.1274 73.0408 74.1368 71.778C74.5949 79.8003 71.6376 85.0159 71.7444 90.5291C66.7454 92.9319 63.3979 97.9118 55.9842 101.14C60.74 107.641 61.0907 113.621 64.184 118.202C61.2886 122.906 61.1812 128.892 56.7024 135.583C64.2463 138.503 67.7977 143.337 72.8925 145.532C73.0172 151.045 76.1897 156.137 76.065 164.171L76.0768 164.182ZM91.6224 171.891C90.757 171.009 89.6427 170.172 88.2407 169.443C82.4608 166.422 76.3085 167.169 70.7325 170.571C73.0792 164.508 72.6891 158.36 68.6399 153.274C67.6565 152.038 66.6274 151.107 65.5922 150.422C65.3433 149.214 64.8626 147.912 64.0822 146.542C60.8701 140.9 55.2831 138.228 48.7402 138.093C54.0163 134.247 57.036 128.869 56.397 122.418C56.2443 120.852 55.8825 119.515 55.3848 118.381C55.8316 117.231 56.137 115.883 56.2218 114.311C56.5894 107.838 53.3491 102.589 47.9146 98.9673C54.4461 98.5686 59.9144 95.6661 62.889 89.8948C63.6128 88.4914 64.037 87.1777 64.235 85.9592C65.2415 85.235 66.2312 84.2581 67.1586 82.984C70.9926 77.7348 71.1227 71.5813 68.5271 65.619C74.2383 68.7857 80.4249 69.2795 86.069 66.0231C87.4374 65.2316 88.5173 64.3558 89.349 63.4351C90.5873 63.3621 91.9499 63.0758 93.4319 62.5031C99.5168 60.1451 102.978 55.0362 104.041 48.6248C107.123 54.3569 112.054 58.0904 118.574 58.3823C120.157 58.4553 121.543 58.2925 122.742 57.9668C123.827 58.5732 125.128 59.0616 126.683 59.3704C133.085 60.6561 138.78 58.2139 143.162 53.3913C142.631 59.8645 144.746 65.6527 150.078 69.4029C151.373 70.3125 152.623 70.9192 153.81 71.2895C154.393 72.3787 155.224 73.4903 156.361 74.5848C161.049 79.0986 167.168 80.104 173.478 78.3969C169.509 83.5623 168.135 89.5634 170.578 95.5763C171.171 97.0365 171.895 98.2208 172.693 99.1641C172.585 100.393 172.681 101.775 173.043 103.308C174.525 109.618 179.128 113.75 185.371 115.703C179.219 117.915 174.791 122.233 173.575 128.599C173.28 130.143 173.241 131.53 173.399 132.754C172.641 133.731 171.969 134.943 171.437 136.425C169.248 142.534 170.872 148.474 175.056 153.47C168.677 152.027 162.604 153.285 158.108 157.99C157.017 159.129 156.231 160.275 155.699 161.392C154.529 161.807 153.301 162.464 152.046 163.43C146.877 167.394 145.006 173.26 145.808 179.711C141.228 175.074 135.432 172.868 129.092 174.417C127.554 174.793 126.27 175.332 125.213 175.983C124.003 175.703 122.611 175.602 121.034 175.736C114.53 176.298 109.758 180.228 106.919 186.083C105.59 179.722 101.914 174.759 95.7389 172.66C94.2404 172.149 92.8661 171.918 91.6224 171.896V171.891Z" fill="#D4D4D4"/>
<path d="M110.075 123.547C109.956 126.421 109.617 129.133 109.102 131.698C110.629 129.571 112.382 127.46 114.406 125.405C115.871 127.886 117.064 130.351 118.026 132.782C118.15 130.172 118.478 127.454 119.066 124.641C121.651 125.944 123.997 127.375 126.129 128.908C124.812 126.646 123.613 124.186 122.567 121.503C125.451 121.211 128.205 121.16 130.829 121.301C128.487 120.105 126.141 118.679 123.799 116.984C126.067 115.192 128.357 113.665 130.642 112.38C128.024 112.632 125.27 112.688 122.375 112.52C123.301 109.797 124.399 107.288 125.62 104.974C123.556 106.592 121.272 108.118 118.744 109.528C118.042 106.738 117.596 104.037 117.364 101.437C116.504 103.908 115.418 106.417 114.056 108.961C111.946 106.99 110.103 104.958 108.491 102.892C109.114 105.429 109.566 108.13 109.809 110.993C106.959 110.465 104.301 109.747 101.824 108.876C103.73 110.678 105.579 112.706 107.343 114.985C104.663 116.068 102.033 116.893 99.4714 117.489C102.056 117.983 104.714 118.69 107.44 119.667C105.777 122.019 104.012 124.125 102.18 126C104.624 125.029 107.247 124.198 110.069 123.552L110.075 123.547ZM100.676 151.073C95.0037 159.073 88.501 163.654 86.4421 165.216C85.4361 165.979 81.9579 164.884 81.9579 164.884C92.092 159.118 102.373 145.386 103.99 130.822C89.8694 135.067 78.1524 147.62 74.3013 158.568C74.3013 158.568 72.5764 155.379 73.1474 154.25C74.3178 151.955 77.6599 144.769 84.5423 137.767C75.4149 141.456 67.4526 141.815 64.8684 142.023C63.6074 142.124 61.2775 139.334 61.2775 139.334C72.9441 139.923 89.072 133.888 98.3578 122.508C84.1693 118.499 67.4757 122.772 58.2747 129.913C58.2747 129.913 58.5631 126.303 59.6545 125.663C61.8883 124.361 68.6118 120.111 78.2144 117.91C68.5273 116.113 61.6338 112.144 59.3435 110.931C58.2238 110.336 57.7827 106.743 57.7827 106.743C67.2718 113.502 84.1297 117.079 98.1426 112.486C88.3874 101.5 72.0166 96.1322 60.3897 97.2049C60.3897 97.2049 62.6008 94.3248 63.8675 94.3697C66.4572 94.4707 74.4313 94.5043 83.7 97.8108C76.5292 91.1021 72.8926 84.0561 71.6265 81.8104C71.01 80.71 72.5929 77.4536 72.5929 77.4536C76.8969 88.2333 89.1287 100.292 103.413 103.947C101.19 89.4683 90.344 76.1684 79.973 70.8287C79.973 70.8287 83.3996 69.5884 84.4406 70.3125C86.5609 71.7892 93.2511 76.0951 99.2509 83.8541C96.8758 74.3603 97.6449 66.4839 97.8033 63.9179C97.8825 62.6603 100.993 60.7739 100.993 60.7739C98.742 72.1543 102.469 88.8617 112.495 99.6077C118.512 86.2344 116.629 69.2234 110.815 59.1626C110.815 59.1626 114.373 59.9599 114.853 61.1221C115.837 63.5024 119.117 70.7165 119.937 80.4631C123.109 71.1997 128.046 64.9902 129.579 62.9129C130.331 61.8968 133.973 61.9754 133.973 61.9754C125.886 70.3403 119.92 86.3975 122.499 100.814C134.844 92.792 142.523 77.4708 143.111 65.8885C143.111 65.8885 145.673 68.4708 145.441 69.7059C144.972 72.2381 143.801 80.0644 139.187 88.7046C146.9 82.6131 154.438 80.0419 156.853 79.1158C158.035 78.6663 161.061 80.6875 161.061 80.6875C149.699 83.3821 135.941 93.6845 130.258 107.204C145.011 107.08 159.816 98.3105 166.613 88.8841C166.613 88.8841 167.36 92.427 166.495 93.3478C164.719 95.2225 159.477 101.185 150.887 105.974C160.693 104.992 168.435 106.872 170.973 107.389C172.218 107.647 173.654 110.971 173.654 110.971C162.632 107.142 145.441 108.422 133.3 116.747C145.78 124.563 163.006 125.136 173.863 120.851C173.863 120.851 172.562 124.237 171.33 124.54C168.819 125.163 161.156 127.364 151.323 126.786C160.105 131.221 165.595 136.959 167.445 138.761C168.349 139.643 167.75 143.213 167.75 143.213C160.563 134.073 145.401 125.927 130.659 126.41C136.902 139.682 151.085 149.411 162.548 151.634C162.548 151.634 159.613 153.784 158.408 153.38C155.954 152.561 148.314 150.298 140.351 144.532C145.328 152.976 146.821 160.752 147.398 163.262C147.681 164.491 145.232 167.175 145.232 167.175C144.163 155.626 135.845 140.636 123.177 133.13C121.204 147.643 127.837 163.441 136.269 171.464C136.269 171.464 132.627 171.694 131.835 170.712C130.218 168.702 125.021 162.7 121.464 153.577C121.051 163.351 118.071 170.695 117.194 173.114C116.764 174.299 113.241 175.242 113.241 175.242C118.63 164.957 119.796 147.878 113.225 134.764C103.656 145.914 100.636 162.762 103.362 174.035C103.362 174.035 100.172 172.278 100.042 171.026C99.777 168.466 98.674 160.628 100.654 151.045L100.676 151.073Z" fill="#D4D4D4"/>
<path d="M90.1575 147.351C92.289 152.308 91.0342 159.68 89.3826 161.263L84.169 164.182C84.169 164.182 89.1284 158.253 86.3573 152.246C86.3573 152.246 85.8655 152.858 84.9941 153.515C85.4866 152.549 86.0008 151.955 86.0008 151.955C79.5429 150.349 74.5835 156.278 74.5835 156.278L76.5229 150.652C77.7897 148.749 84.8588 146.177 90.1575 147.345V147.351Z" fill="#D4D4D4"/>
<path d="M77.7279 128.993C76.8229 134.303 71.7506 139.834 69.4996 140.282L63.5225 139.94C63.5225 139.94 70.9248 137.616 71.8635 131.069C71.8635 131.069 71.1169 131.317 70.0317 131.407C70.9756 130.856 71.7282 130.632 71.7282 130.632C67.1701 125.815 59.7676 128.139 59.7676 128.139L64.4612 124.45C66.5595 123.529 73.9105 125.158 77.7279 128.987V128.993Z" fill="#D4D4D4"/>
<path d="M77.2652 106.872C73.6115 110.859 66.3338 112.784 64.1962 111.953L59.3555 108.461C59.3555 108.461 66.8487 110.476 71.2028 105.474C71.2028 105.474 70.439 105.283 69.4779 104.772C70.5691 104.817 71.3269 105.036 71.3269 105.036C70.1169 98.535 62.6241 96.5196 62.6241 96.5196L68.5788 95.9361C70.8463 96.2892 76.145 101.606 77.2705 106.878L77.2652 106.872Z" fill="#D4D4D4"/>
<path d="M88.9139 88.02C83.6719 89.4122 76.4952 87.1269 75.1552 85.2799L72.9834 79.7442C72.9834 79.7442 78.1864 85.4594 84.5763 83.59C84.5763 83.59 84.0396 83.0177 83.5076 82.0744C84.4014 82.6975 84.9215 83.287 84.9215 83.287C87.4438 77.1671 82.2355 71.4519 82.2355 71.4519L87.5679 74.1583C89.2816 75.6739 90.848 82.9893 88.9198 88.0253L88.9139 88.02Z" fill="#D4D4D4"/>
<path d="M108.989 78.4141C103.82 76.7691 99.0305 70.9977 98.9062 68.7236L100.094 62.9017C100.094 62.9017 101.355 70.5033 107.75 72.3615C107.75 72.3615 107.609 71.5925 107.677 70.5092C108.09 71.5139 108.203 72.2889 108.203 72.2889C113.654 68.4933 112.393 60.8918 112.393 60.8918L115.407 66.0291C116.024 68.2239 113.355 75.2139 108.995 78.4253L108.989 78.4141Z" fill="#D4D4D4"/>
<path d="M131.106 81.1087C127.656 76.9487 126.762 69.5264 127.899 67.5447L132.073 63.2835C132.073 63.2835 128.996 70.3574 133.362 75.3485C133.362 75.3485 133.662 74.6244 134.306 73.7484C134.109 74.8152 133.781 75.5281 133.781 75.5281C140.436 75.2641 143.513 68.1903 143.513 68.1903L143.252 74.13C142.58 76.3084 136.523 80.7549 131.111 81.114L131.106 81.1087Z" fill="#D4D4D4"/>
<path d="M148.246 95.2397C147.607 89.8895 150.904 83.1636 152.934 82.1081L158.765 80.7608C158.765 80.7608 152.323 85.0608 153.279 91.6018C153.279 91.6018 153.923 91.1523 154.941 90.7648C154.195 91.5569 153.533 91.9781 153.533 91.9781C159.274 95.3235 165.714 91.0236 165.714 91.0236L162.259 95.8793C160.506 97.3507 152.991 97.8445 148.241 95.2338L148.246 95.2397Z" fill="#D4D4D4"/>
<path d="M154.965 116.332C157.34 111.487 163.775 107.602 166.06 107.798L171.698 109.797C171.698 109.797 163.939 109.954 161.18 115.973C161.18 115.973 161.965 115.945 163.034 116.164C161.977 116.428 161.185 116.428 161.185 116.428C164.194 122.328 171.952 122.166 171.952 122.166L166.405 124.394C164.126 124.692 157.538 121.071 154.959 116.326L154.965 116.332Z" fill="#D4D4D4"/>
<path d="M149.134 137.683C153.771 134.881 161.298 135.067 163.113 136.465L166.767 141.17C166.767 141.17 160.15 137.138 154.551 140.72C154.551 140.72 155.23 141.119 156.011 141.877C154.976 141.529 154.314 141.108 154.314 141.108C153.63 147.682 160.246 151.713 160.246 151.713L154.365 150.607C152.29 149.636 148.715 143.05 149.129 137.678L149.134 137.683Z" fill="#D4D4D4"/>
<path d="M132.599 152.516C138.023 152.651 144.26 156.845 145.023 158.995L145.532 164.918C145.532 164.918 142.162 157.979 135.506 157.984C135.506 157.984 135.862 158.68 136.106 159.741C135.421 158.894 135.093 158.186 135.093 158.186C130.937 163.351 134.307 170.296 134.307 170.296L129.959 166.209C128.743 164.278 129.32 156.822 132.594 152.522L132.599 152.516Z" fill="#D4D4D4"/>
<path d="M110.618 156.115C115.108 159.141 118.071 166.012 117.546 168.23L114.752 173.485C114.752 173.485 115.696 165.839 110.092 162.268C110.092 162.268 110.013 163.042 109.639 164.064C109.527 162.986 109.639 162.211 109.639 162.211C103.329 164.328 102.39 171.974 102.39 171.974L100.959 166.203C100.987 163.924 105.534 157.962 110.629 156.103L110.618 156.115Z" fill="#D4D4D4"/>
<path d="M82.7159 192.36C80.6801 189.076 76.5465 185.937 69.7942 185.69C62.4991 185.421 56.4313 189.884 54.8818 194.095C52.9195 199.44 53.4794 203.779 56.731 205.278C59.9827 206.783 63.2343 205.391 62.731 201.494C62.4199 199.114 61.2154 199.406 61.2154 199.406C61.2154 199.406 62.239 201.68 60.3729 201.825C58.2409 201.994 57.0646 196.992 60.3615 193.977C63.0533 191.524 72.1409 188.75 76.0936 194.146C78.1525 196.952 77.1855 200.574 74.7477 200.989C74.7477 200.989 75.9524 198.21 73.4868 196.425C71.0213 194.645 64.5745 197.261 66.7062 203.1C67.9564 206.536 72.0392 208.394 75.9979 207.793C78.2707 211.066 82.4333 212.74 85.8092 211.291C91.5548 208.827 89.0497 202.37 86.0521 201.809C83.0552 201.247 81.8452 204.026 81.8452 204.026C80.4761 201.977 82.473 198.799 85.9392 198.362C92.6063 197.519 96.808 205.985 96.8535 209.613C96.9096 214.065 92.4314 216.642 91.0907 214.991C89.9203 213.542 92.2895 212.723 92.2895 212.723C92.2895 212.723 91.6789 211.651 89.7223 213.06C86.5214 215.367 87.7261 218.668 91.0571 219.988C94.388 221.307 97.9559 218.735 100.524 213.655C102.548 209.652 101.66 202.208 96.4634 197.121C91.6505 192.416 86.5161 191.58 82.7099 192.36H82.7159Z" fill="#D4D4D4"/>
<path d="M46.9533 162.863C47.0269 159.006 45.2568 154.149 39.7149 150.315C33.7206 146.172 26.1881 146.672 22.5972 149.383C18.0392 152.825 16.1448 156.777 18.0619 159.786C19.9789 162.796 23.4737 163.368 25.1702 159.82C26.2051 157.653 25.0345 157.255 25.0345 157.255C25.0345 157.255 24.6556 159.719 23.01 158.838C21.1269 157.833 22.8573 152.993 27.2796 152.23C30.8818 151.607 40.0373 154.155 40.4219 160.819C40.6254 164.289 37.8431 166.815 35.5642 165.855C35.5642 165.855 38.0919 164.16 36.9892 161.341C35.8865 158.517 29.0383 157.26 27.6472 163.318C26.8328 166.877 29.2475 170.633 32.9063 172.25C33.0364 176.225 35.6263 179.863 39.2569 180.458C45.4322 181.468 46.8403 174.692 44.6235 172.615C42.4067 170.537 39.8733 172.222 39.8733 172.222C39.8394 169.768 43.2437 168.163 46.4049 169.656C52.4727 172.525 51.3982 181.901 49.4585 184.977C47.0778 188.75 41.9091 188.514 41.6829 186.409C41.485 184.562 43.9279 185.146 43.9279 185.146C43.9279 185.146 43.9958 183.917 41.5868 184.051C37.6339 184.276 36.8535 187.7 38.9402 190.597C41.0212 193.494 45.4265 193.247 50.3577 190.35C54.2427 188.071 57.5508 181.328 55.9449 174.26C54.4632 167.719 50.5952 164.261 46.9703 162.874L46.9533 162.863Z" fill="#D4D4D4"/>
<path d="M32.9292 118.853C35.0894 115.647 36.2487 110.611 33.6757 104.413C30.8934 97.7158 24.2826 94.0885 19.7813 94.4423C14.0697 94.8918 10.3261 97.1989 10.3034 100.758C10.2752 104.318 12.9048 106.676 16.2639 104.604C18.3166 103.335 17.5475 102.37 17.5475 102.37C17.5475 102.37 15.8906 104.239 14.9801 102.616C13.9396 100.764 18.0339 97.6201 22.1677 99.3496C25.5324 100.758 31.8491 107.815 28.5466 113.626C26.8274 116.652 23.1121 117.281 21.7153 115.254C21.7153 115.254 24.7633 115.187 25.3741 112.222C25.9792 109.259 20.9066 104.52 16.4391 108.871C13.8152 111.431 13.8039 115.883 15.998 119.207C13.9453 122.62 14.1376 127.072 16.8689 129.52C21.5174 133.686 26.3864 128.74 25.6569 125.804C24.9273 122.861 21.8793 122.923 21.8793 122.923C23.1856 120.841 26.9292 121.317 28.7727 124.271C32.3185 129.941 26.3015 137.251 22.999 138.801C18.9443 140.698 14.7201 137.728 15.6814 135.831C16.524 134.168 18.2544 135.971 18.2544 135.971C18.2544 135.971 18.9839 134.971 16.8803 133.792C13.4363 131.861 10.9142 134.32 11.0895 137.88C11.2648 141.434 15.1046 143.59 20.8274 143.803C25.3401 143.971 31.7869 140.075 34.2921 133.265C36.605 126.965 35.2364 121.98 32.9462 118.87L32.9292 118.853Z" fill="#D4D4D4"/>
<path d="M45.0994 74.2983C48.6621 72.7602 52.3831 69.1501 53.5876 62.548C54.8939 55.418 51.3087 48.8213 47.3331 46.6991C42.2889 44.0099 37.878 43.9425 35.9157 46.9236C33.9534 49.9048 34.8808 53.2958 38.8337 53.3576C41.2484 53.3912 41.1296 52.1674 41.1296 52.1674C41.1296 52.1674 38.7149 52.8523 38.8337 50.994C38.9694 48.8774 44.1268 48.4283 46.6602 52.1C48.7243 55.0923 50.1946 64.4176 44.2512 67.5335C41.1578 69.156 37.6857 67.6906 37.6179 65.2373C37.6179 65.2373 40.2192 66.8146 42.3455 64.6478C44.4717 62.4807 42.7809 55.7716 36.6508 57.0349C33.0486 57.7759 30.6169 61.5206 30.6508 65.4955C27.0656 67.2641 24.8036 71.1152 25.7706 74.6409C27.4105 80.6374 34.2022 79.0986 35.1862 76.2298C36.1702 73.3669 33.5745 71.778 33.5745 71.778C35.8082 70.7277 38.6979 73.1365 38.6414 76.612C38.534 83.2811 29.4916 86.2061 25.8724 85.7347C21.4275 85.1565 19.4935 80.3845 21.3314 79.3066C22.943 78.3633 23.4237 80.8057 23.4237 80.8057C23.4237 80.8057 24.5773 80.3561 23.452 78.2339C21.6085 74.7591 18.142 75.4773 16.355 78.56C14.568 81.6473 16.6207 85.5156 21.3201 88.7666C25.0241 91.3266 32.5735 91.512 38.3869 87.1269C43.7648 83.0679 45.3256 78.1388 45.0938 74.293L45.0994 74.2983Z" fill="#D4D4D4"/>
<path d="M79.5946 43.353C83.4285 43.9705 88.524 42.9263 93.1329 38.0251C98.1147 32.7253 98.6917 25.2528 96.4975 21.334C93.7151 16.3654 90.0449 13.9401 86.7707 15.3998C83.4965 16.8539 82.4278 20.2056 85.7244 22.3783C87.7378 23.7033 88.3035 22.6085 88.3035 22.6085C88.3035 22.6085 85.9 21.8899 87.0143 20.3909C88.281 18.6842 92.8616 21.0758 92.9969 25.5223C93.1045 29.149 89.2593 37.7837 82.5638 37.2167C79.0797 36.9191 76.9535 33.8257 78.2315 31.726C78.2315 31.726 79.561 34.4489 82.5295 33.7696C85.4987 33.0846 87.7325 26.5328 81.8905 24.3096C78.4579 23.0015 74.3692 24.8429 72.2377 28.2059C68.2565 27.768 64.2582 29.7947 63.1555 33.2755C61.2724 39.2041 67.8209 41.5508 70.2131 39.6701C72.5994 37.7893 71.2818 35.0608 71.2818 35.0608C73.7361 35.3752 74.8504 38.9515 72.9103 41.8428C69.1893 47.4009 59.9887 45.0036 57.2008 42.6625C53.7739 39.788 54.7465 34.7408 56.8784 34.8194C58.7502 34.8867 57.8172 37.2055 57.8172 37.2055C57.8172 37.2055 59.033 37.4469 59.2422 35.0608C59.5815 31.1477 56.279 29.8901 53.0896 31.5239C49.9058 33.1576 49.5269 37.5199 51.7098 42.7748C53.4289 46.918 59.6776 51.1231 66.9554 50.556C73.6906 50.0283 77.6889 46.7216 79.5834 43.3586L79.5946 43.353Z" fill="#D4D4D4"/>
<path d="M125.474 35.8356C128.364 38.4125 133.216 40.2708 139.764 38.6202C146.838 36.8349 151.396 30.8614 151.685 26.3869C152.053 20.7109 150.282 16.7023 146.737 16.169C143.191 15.6356 140.466 17.8813 142.055 21.48C143.027 23.6752 144.102 23.0576 144.102 23.0576C144.102 23.0576 142.473 21.16 144.22 20.4975C146.217 19.7396 148.767 24.2142 146.454 28.0262C144.571 31.1364 136.631 36.3352 131.31 32.2649C128.539 30.1428 128.437 26.4037 130.66 25.3201C130.66 25.3201 130.292 28.3238 133.165 29.3456C136.038 30.3673 141.478 26.05 137.779 21.0421C135.602 18.0947 131.163 17.4546 127.532 19.1389C124.422 16.635 119.955 16.1914 117.127 18.5269C112.314 22.5018 116.55 27.9925 119.582 27.6893C122.618 27.3861 122.991 24.3826 122.991 24.3826C124.886 25.9658 123.874 29.5701 120.667 30.9624C114.509 33.6404 108.079 26.6844 107.005 23.2204C105.687 18.9648 109.256 15.237 111.008 16.4497C112.547 17.5107 110.499 18.9592 110.499 18.9592C110.499 18.9592 111.393 19.8182 112.869 17.915C115.289 14.8047 113.191 11.9752 109.617 11.6383C106.049 11.3014 103.357 14.771 102.328 20.3628C101.519 24.7699 104.482 31.6642 110.918 35.0945C116.867 38.2665 122.036 37.6265 125.463 35.8187L125.474 35.8356Z" fill="#D4D4D4"/>
<path d="M168.157 54.1323C169.181 57.8489 172.257 62.0203 178.664 64.1481C185.591 66.4443 192.677 63.8618 195.352 60.2574C198.751 55.6819 199.446 51.3589 196.749 49.0065C194.057 46.6542 190.54 47.0809 189.923 50.9603C189.544 53.3295 190.783 53.3856 190.783 53.3856C190.783 53.3856 190.444 50.9154 192.276 51.2971C194.368 51.7351 194.08 56.8608 190.059 58.8314C186.779 60.4315 177.273 60.5494 175.011 54.267C173.835 50.9939 175.786 47.7939 178.246 48.0746C178.246 48.0746 176.3 50.4045 178.161 52.8073C180.021 55.2047 186.949 54.4972 186.564 48.2992C186.338 44.6555 182.951 41.7305 178.981 41.1972C177.725 37.4244 174.214 34.6509 170.561 35.1001C164.346 35.858 164.917 42.7523 167.637 44.1278C170.351 45.5033 172.308 43.179 172.308 43.179C173.037 45.5257 170.227 48.0184 166.772 47.4682C160.133 46.4128 158.51 37.1156 159.494 33.6179C160.704 29.3287 165.731 28.1104 166.545 30.0698C167.258 31.7877 164.753 31.9112 164.753 31.9112C164.753 31.9112 165.035 33.1127 167.315 32.3042C171.041 30.9849 170.821 27.4816 167.999 25.2808C165.177 23.0857 161.026 24.551 157.119 28.7111C154.037 31.9842 152.775 39.3781 156.321 45.7166C159.601 51.5779 164.295 53.8123 168.163 54.1323H168.157Z" fill="#D4D4D4"/>
<path d="M194.103 92.4382C192.938 96.1156 193.255 101.275 197.485 106.502C202.06 112.15 209.428 113.784 213.647 112.183C218.997 110.157 221.937 106.895 220.953 103.47C219.97 100.045 216.78 98.5185 214.145 101.449C212.533 103.24 213.545 103.953 213.545 103.953C213.545 103.953 214.608 101.696 215.937 102.999C217.458 104.487 214.422 108.647 209.966 108.147C206.335 107.737 198.271 102.729 199.792 96.2331C200.584 92.8481 203.971 91.2031 205.883 92.7583C205.883 92.7583 202.976 93.6732 203.236 96.6939C203.496 99.7086 209.711 102.836 212.759 97.4121C214.552 94.2231 213.296 89.9456 210.248 87.3685C211.249 83.5174 209.802 79.3006 206.482 77.7177C200.844 75.0231 197.57 81.1252 199.102 83.7418C200.64 86.3579 203.547 85.4482 203.547 85.4482C202.885 87.8121 199.159 88.4016 196.552 86.0826C191.542 81.6361 195.24 72.9345 197.971 70.5257C201.325 67.5671 206.222 69.2398 205.837 71.3284C205.504 73.1589 203.327 71.9126 203.327 71.9126C203.327 71.9126 202.914 73.0744 205.266 73.619C209.117 74.5121 210.842 71.4406 209.666 68.078C208.49 64.7151 204.197 63.7214 198.644 65.1193C194.267 66.2198 189.183 71.7608 188.714 78.9976C188.278 85.6898 191.01 90.0915 194.092 92.4322L194.103 92.4382Z" fill="#D4D4D4"/>
<path d="M195.07 138.593C192.09 141.063 189.545 145.571 190.258 152.241C191.027 159.449 196.343 164.777 200.759 165.698C206.363 166.866 210.61 165.698 211.645 162.29C212.68 158.882 210.831 155.884 207.019 156.934C204.689 157.574 205.153 158.719 205.153 158.719C205.153 158.719 207.273 157.389 207.687 159.203C208.156 161.274 203.338 163.143 199.86 160.331C197.032 158.035 192.972 149.501 197.79 144.847C200.301 142.427 204.045 142.86 204.808 145.195C204.808 145.195 201.862 144.409 200.437 147.082C199.011 149.759 202.534 155.722 208.06 152.797C211.305 151.079 212.578 146.806 211.419 142.999C214.354 140.3 215.434 135.977 213.506 132.861C210.225 127.566 204.152 130.946 204.016 133.967C203.886 136.992 206.827 137.79 206.827 137.79C204.978 139.424 201.528 137.919 200.595 134.573C198.802 128.144 206.652 122.811 210.259 122.25C214.693 121.565 217.899 125.596 216.44 127.146C215.162 128.504 214.009 126.292 214.009 126.292C214.009 126.292 213.03 127.044 214.71 128.767C217.464 131.586 220.585 129.93 221.428 126.466C222.271 123.007 219.2 119.864 213.766 118.061C209.485 116.641 202.19 118.572 197.858 124.405C193.849 129.801 193.747 134.966 195.065 138.599L195.07 138.593Z" fill="#D4D4D4"/>
<path d="M170.753 177.931C166.902 178.409 162.304 180.834 159.274 186.83C155.994 193.309 157.565 200.641 160.778 203.785C164.855 207.777 169.068 209.073 171.794 206.76C174.52 204.447 174.599 200.933 170.815 199.771C168.508 199.063 168.276 200.27 168.276 200.27C168.276 200.27 170.788 200.287 170.143 202.033C169.413 204.026 164.335 203.016 162.943 198.783C161.813 195.336 163.051 185.971 169.634 184.646C173.06 183.955 175.979 186.331 175.345 188.705C175.345 188.705 173.298 186.459 170.64 187.947C167.982 189.435 167.7 196.346 173.943 196.846C177.607 197.143 181.006 194.229 182.103 190.406C186.045 189.71 189.308 186.65 189.381 183.001C189.505 176.786 182.555 176.365 180.797 178.841C179.038 181.317 181.079 183.563 181.079 183.563C178.636 183.944 176.55 180.829 177.59 177.51C179.586 171.138 189.092 170.863 192.435 172.328C196.535 174.13 197.038 179.245 194.968 179.767C193.153 180.222 193.39 177.741 193.39 177.741C193.39 177.741 192.157 177.847 192.633 180.199C193.419 184.051 196.942 184.332 199.537 181.873C202.127 179.414 201.256 175.125 197.665 170.689C194.838 167.197 187.651 164.907 180.825 167.489C174.514 169.881 171.619 174.17 170.748 177.926L170.753 177.931Z" fill="#D4D4D4"/>
<path d="M128.866 197.98C125.366 196.312 120.181 195.891 114.361 199.305C108.079 202.993 105.404 210.005 106.393 214.379C107.654 219.926 110.487 223.278 114.039 222.795C117.59 222.312 119.569 219.398 117.025 216.389C115.47 214.553 114.616 215.445 114.616 215.445C114.616 215.445 116.714 216.81 115.226 217.933C113.525 219.219 109.809 215.642 110.946 211.336C111.873 207.827 118.009 200.619 124.275 203.038C127.537 204.296 128.697 207.861 126.87 209.517C126.87 209.517 126.367 206.53 123.325 206.356C120.282 206.182 116.279 211.841 121.255 215.614C124.178 217.832 128.623 217.203 131.626 214.575C135.319 216.108 139.73 215.283 141.783 212.251C145.271 207.092 139.651 203.004 136.829 204.144C134.001 205.284 134.493 208.271 134.493 208.271C132.231 207.283 132.175 203.538 134.855 201.303C140.001 197.014 148.15 201.881 150.163 204.913C152.634 208.63 150.27 213.2 148.246 212.526C146.47 211.937 148.02 209.977 148.02 209.977C148.02 209.977 146.923 209.405 146.046 211.639C144.61 215.3 147.426 217.427 150.944 216.748C154.467 216.069 156.062 211.993 155.462 206.339C154.987 201.881 150.186 196.099 143.038 194.611C136.427 193.236 131.655 195.29 128.877 197.986L128.866 197.98Z" fill="#D4D4D4"/>
</svg>
